<svg xmlns="http://www.w3.org/2000/svg" xmlns:xlink="http://www.w3.org/1999/xlink" width="70" height="70" viewBox="0 0 70 70">
  <defs>
    <clipPath id="clip-path">
      <rect id="Rectangle_179" data-name="Rectangle 179" width="70" height="70" transform="translate(4953 2840)" fill="#fff" stroke="#fff" stroke-width="1"/>
    </clipPath>
  </defs>
  <g id="Mask_Group_38" data-name="Mask Group 38" transform="translate(-4953 -2840)" clip-path="url(#clip-path)">
    <g id="project" transform="translate(4953 2910.029)">
      <path id="Path_6957" data-name="Path 6957" d="M21.848-62.932c-.369.1-21.479,16.557-21.67,16.9C.041-45.8.014-41.453,0-26.77V-7.807l.656.766H69.344L70-7.807V-26.742c0-16.187-.027-18.99-.191-19.3-.246-.451-16.434-16.611-16.857-16.83-.205-.109-4.676-.15-15.586-.137C28.957-63,21.971-62.973,21.848-62.932Zm37.105,9.16c3.828,3.828,6.945,6.986,6.945,7.041s-6.043.109-13.439.109H39.033L24.951-60.7h27.07Zm-23.42,7.082c-.041.041-7.027.055-15.518.041L4.594-46.689l8.736-6.795,8.75-6.809,6.768,6.768C32.566-49.807,35.574-46.73,35.533-46.689ZM4.648-44.3v6.973H2.324V-44.3Zm28.027,0v2.324H6.973V-44.3Zm4.648,0v6.973H35V-44.3Zm30.352,0v35H39.648v-35Zm-35,4.648v2.324H6.973v-2.324ZM37.324-35V-9.3H35v-5.414a46.308,46.308,0,0,0-.15-5.688c-.342-.629-.656-.656-7.437-.656H21.055v-5.2c0-5.7-.027-5.961-.766-6.275a67.357,67.357,0,0,0-7.67-.123l-7.273.041-.629.629L4.676-20.645,4.648-9.3H2.324V-35Zm-28,6.617c.041,1.873.055,2,.369,2.324l.328.355H12.8c3.623,0,3.377.178,3.473-2.557l.068-2.023h2.324l.041,4.607.027,4.621H6.973v-9.3H9.283Zm4.621-1.969v2.324H11.621v-2.324ZM9.3-16.953c0,3.008.055,3.062,3.855,2.98,2.324-.041,2.42-.055,2.762-.369s.355-.383.383-2.324l.041-2h2.324v9.3l-5.838.041L6.973-9.3v-4.621c0-2.543.041-4.676.1-4.717a4.033,4.033,0,0,1,1.162-.1H9.3Zm4.648-1.777v2.475L12.824-16.3l-1.135-.041-.041-1.012a5.678,5.678,0,0,1,.027-1.2c.055-.123.383-.178,1.176-.178Zm9.406,2.064c.027,1.941.041,2.01.383,2.324s.438.328,2.762.369c3.8.082,3.855.041,3.855-2.912v-1.859l1.135.041,1.121.041.041,4.676L32.676-9.3H21.055v-9.447l1.135.041,1.121.041Zm4.607-2v2.324l-1.121.041-1.135.041v-2.488l1.135.041Z" fill="#727272" stroke="#fefefe" stroke-width="0.6"/>
      <path id="Path_6958" data-name="Path 6958" d="M45.131-39.648l-.766.656v17.227l.656.711h8.641c8.436,0,8.641,0,8.928-.273a1.611,1.611,0,0,0,.369-.711c.041-.246.068-4.17.041-8.7l-.041-8.258-.766-.656ZM60.7-37.324v13.945H46.621V-37.324Z" fill="#727272" stroke="#fefefe" stroke-width="0.6"/>
      <path id="Path_6959" data-name="Path 6959" d="M49.424-34.672a1.72,1.72,0,0,0-.41.779c-.041.26-.068,2.051-.041,3.992l.041,3.541.766.656h7.875l.656-.711v-7.93L57.545-35H49.752Zm6.631,2v4.648H51.27v-2.229a14.894,14.894,0,0,1,.1-2.324,15.715,15.715,0,0,1,2.393-.1Z" fill="#727272" stroke="#fefefe" stroke-width="0.6"/>
      <g id="Group_734" data-name="Group 734">
        <g id="Group_732" data-name="Group 732" transform="translate(0 -71.179)">
          <path id="Path_6960" data-name="Path 6960" d="M21.055,38.5H4.648V50.125H21.055ZM18.73,40.877H6.973v9.247H18.73Z" fill="#fe6d05" fill-rule="evenodd"/>
        </g>
        <g id="Group_733" data-name="Group 733" transform="translate(0 -70)">
          <path id="Path_6961" data-name="Path 6961" d="M16.27,39a.578.578,0,0,0-.578-.578H9.875A.578.578,0,0,0,9.3,39v4.724a.578.578,0,0,0,.578.578h5.817a.578.578,0,0,0,.578-.578Zm-2.324.653H11.621v2.324h2.324Z" fill="#fe6d05" fill-rule="evenodd"/>
        </g>
      </g>
      <g id="Group_737" data-name="Group 737" transform="translate(13.945 11.621)">
        <g id="Group_735" data-name="Group 735" transform="translate(0 -71.179)">
          <path id="Path_6962" data-name="Path 6962" d="M21.055,38.5H4.648V50.125H21.055ZM18.73,40.877H6.973v9.247H18.73Z" fill="#fe6d05" fill-rule="evenodd"/>
        </g>
        <g id="Group_736" data-name="Group 736" transform="translate(0.137 -69.863)">
          <path id="Path_6963" data-name="Path 6963" d="M16.27,39a.578.578,0,0,0-.578-.578H9.875A.578.578,0,0,0,9.3,39v4.724a.578.578,0,0,0,.578.578h5.817a.578.578,0,0,0,.578-.578Zm-2.324.653H11.621v2.324h2.324Z" fill="#fe6d05" fill-rule="evenodd"/>
        </g>
      </g>
      <g id="Group_740" data-name="Group 740" transform="translate(0 11.621)">
        <g id="Group_738" data-name="Group 738" transform="translate(0 -71.179)">
          <path id="Path_6964" data-name="Path 6964" d="M21.055,38.5H4.648V50.125H21.055ZM18.73,40.877H6.973v9.247H18.73Z" fill="#fe6d05" fill-rule="evenodd"/>
        </g>
        <g id="Group_739" data-name="Group 739" transform="translate(0 -69.863)">
          <path id="Path_6965" data-name="Path 6965" d="M16.27,39a.578.578,0,0,0-.578-.578H9.875A.578.578,0,0,0,9.3,39v4.724a.578.578,0,0,0,.578.578h5.817a.578.578,0,0,0,.578-.578Zm-2.324.653H11.621v2.324h2.324Z" fill="#fe6d05" fill-rule="evenodd"/>
        </g>
      </g>
    </g>
  </g>
</svg>
