<svg xmlns="http://www.w3.org/2000/svg" width="63.561" height="70.11" viewBox="0 0 63.561 70.11">
  <g id="manufacturing_location" data-name="manufacturing location" transform="translate(3192.735 -8398.044)">
    <path id="Path_5848" data-name="Path 5848" d="M2.549,2.3a.872.872,0,0,0-.249.034V16.666a.872.872,0,0,0,.249.034H8.922a.872.872,0,0,0,.249-.034V2.334A.872.872,0,0,0,8.922,2.3H2.549m0-2.3H8.922a2.325,2.325,0,0,1,2.549,2V17a2.325,2.325,0,0,1-2.549,2H2.549A2.325,2.325,0,0,1,0,17V2A2.325,2.325,0,0,1,2.549,0Z" transform="translate(-3148.451 8448.005)" fill="#fe6d05"/>
    <path id="Union_5" data-name="Union 5" d="M56.957,70.11c-4.627-.035-14.792,0-14.894,0h0a1.15,1.15,0,0,1,0-2.3c.1,0,10.279-.032,14.917,0a8.253,8.253,0,0,0,3.762-.53.844.844,0,0,0,.472-.572c.13-1.179,0-10.367-.088-16.48-.051-3.519-.095-6.558-.095-8.04,0-2.427-.586-3.251-.825-3.378l-.541-.017a1.154,1.154,0,0,1-.2.03l-.071,0a1.144,1.144,0,0,1-.343-.052L51,38.524a1.15,1.15,0,0,1-1.114-1.144c0-.112-.058-11.308,0-14.592a7.44,7.44,0,0,0-.121-1.688c-1.82,1.924-8.159,9.208-10.706,12.46-1.319,1.683-2.449,2.482-3.525,2.482a2.211,2.211,0,0,1-.336-.026A2.084,2.084,0,0,1,33.6,34.7a1.139,1.139,0,0,1-.071-.351c-.017-.385-.408-9.469-.349-12.446a2.323,2.323,0,0,0-.147-1.059.545.545,0,0,0-.18.079c-.088.1-.319.377-.662.791a1.154,1.154,0,0,1-.112.135C30.332,23.967,26.144,29.139,23.1,33.2a10.835,10.835,0,0,1-2.462,2.528,2.982,2.982,0,0,1-2.285.58,2.866,2.866,0,0,1-2.007-2.128,1.13,1.13,0,0,1-.031-.286c0-.086.125-8.674,0-11.92a4.68,4.68,0,0,0-.1-.833L2.3,37.893V65.009a2.626,2.626,0,0,0,1.074,2.206A3.936,3.936,0,0,0,4.5,67.81H37.094a1.15,1.15,0,1,1,0,2.3H4.336a1.174,1.174,0,0,1-.268-.032A6.075,6.075,0,0,1,2.059,69.1,4.918,4.918,0,0,1,0,65.009V37.478a1.149,1.149,0,0,1,.266-.735l14.4-17.335a1.092,1.092,0,0,1,.136-.138A2.3,2.3,0,0,1,17.16,18.8c1.358.593,1.43,2.47,1.453,3.087.119,3.075.022,10.537,0,11.854a.8.8,0,0,0,.2.316c.059,0,.821-.077,2.439-2.236,3.016-4.021,7-8.955,8.87-11.222l1.636-19.54A1.15,1.15,0,0,1,32.913,0h8.236A1.151,1.151,0,0,1,42.3,1.056l1.882,22.851c.736-.845,1.433-1.639,2.046-2.327a1.143,1.143,0,0,1-.123-.621l1.667-19.9A1.15,1.15,0,0,1,48.913,0h8.236A1.151,1.151,0,0,1,58.3,1.08l2.168,35.442a2.558,2.558,0,0,1,1.668.978,7.419,7.419,0,0,1,1.189,4.688c0,1.465.044,4.5.095,8.007.051,3.6.11,7.689.133,10.925.041,5.741-.046,5.987-.146,6.269l-.005.015A3.146,3.146,0,0,1,61.835,69.3a9.995,9.995,0,0,1-4.679.811ZM50.864,18.734c.94.565,1.361,1.867,1.321,4.1-.047,2.644-.018,10.508,0,13.43l5.976.187-1.3-21.294H48.895l-.325,3.888a1.661,1.661,0,0,1,.4-.311,1.964,1.964,0,0,1,.957-.255A1.819,1.819,0,0,1,50.864,18.734ZM33.893,18.69c.745.292,1.625,1.1,1.582,3.259-.048,2.457.23,9.489.32,11.657a6.356,6.356,0,0,0,1.454-1.464c1.119-1.429,3.051-3.728,4.825-5.8-.005-.031-.009-.063-.012-.1l-.914-11.094H32.895l-.287,3.43a2.521,2.521,0,0,1,.467-.044A2.219,2.219,0,0,1,33.893,18.69Zm22.82-5.838-.239-3.908H49.415l-.327,3.908Zm-15.754,0-.322-3.908H33.414l-.327,3.908ZM56.333,6.644,56.067,2.3h-6.1l-.364,4.343Zm-15.885,0L40.09,2.3h-6.12l-.364,4.343Z" transform="translate(-3192.735 8398.044)" fill="#7f7f7f"/>
    <path id="Path_5845" data-name="Path 5845" d="M2.3,2.3V16.7H6.7V2.3H2.3M2,0H7A2,2,0,0,1,9,2V17a2,2,0,0,1-2,2H2a2,2,0,0,1-2-2V2A2,2,0,0,1,2,0Z" transform="translate(-3175 8440)" fill="#fe6d05"/>
    <path id="Path_5846" data-name="Path 5846" d="M2.3,2.3V16.7H6.7V2.3H2.3M2,0H7A2,2,0,0,1,9,2V17a2,2,0,0,1-2,2H2a2,2,0,0,1-2-2V2A2,2,0,0,1,2,0Z" transform="translate(-3188 8440)" fill="#fe6d05"/>
    <path id="Path_5847" data-name="Path 5847" d="M2.3,2.3V16.7H6.7V2.3H2.3M2,0H7A2,2,0,0,1,9,2V17a2,2,0,0,1-2,2H2a2,2,0,0,1-2-2V2A2,2,0,0,1,2,0Z" transform="translate(-3163 8440)" fill="#fe6d05"/>
    <path id="Path_5844" data-name="Path 5844" d="M-3152.417,8406.988h-8.083v-2.3h8.083Z" transform="translate(-14.5 40)" fill="#fe6d05"/>
    <path id="Path_5844-2" data-name="Path 5844" d="M-3152.417,8406.988h-8.083v-2.3h8.083Z" transform="translate(-27.5 40)" fill="#fe6d05"/>
    <path id="Path_5844-3" data-name="Path 5844" d="M-3152.417,8406.988h-8.083v-2.3h8.083Z" transform="translate(-2.5 40)" fill="#fe6d05"/>
  </g>
</svg>
