<svg xmlns="http://www.w3.org/2000/svg" width="70" height="70" viewBox="0 0 70 70">
  <g id="Sales_office" transform="translate(3443 -8353)">
    <path id="Subtraction_11" data-name="Subtraction 11" d="M34.623,70c-7.338,0-14.167-5.79-18.267-15.488A33.721,33.721,0,0,0,12.54,57.3a3.02,3.02,0,0,0-1.358-1.861,36.056,36.056,0,0,1,4.324-3.1,50.416,50.416,0,0,1-2.811-14.48,3.01,3.01,0,0,0,.928.146,2.959,2.959,0,0,0,1.365-.328,50.025,50.025,0,0,0,1.587,10.361c.285,1.074.609,2.134.963,3.15,1.009-.528,2.047-1.012,3.083-1.437a36.628,36.628,0,0,1,12.852-2.729V36.15H16.394A2.985,2.985,0,0,0,16.623,35a2.951,2.951,0,0,0-.229-1.15H33.473V24.772a3.008,3.008,0,0,0,2.3,0V33.85H54.311a50.482,50.482,0,0,0-1.64-11.883c-.276-1.043-.6-2.1-.961-3.147-.918.483-1.883.936-2.865,1.347A36.589,36.589,0,0,1,37.487,22.9a3.013,3.013,0,0,0-.208-2.292,34.254,34.254,0,0,0,10.482-2.478,34.353,34.353,0,0,0,3.125-1.473,34.639,34.639,0,0,0-2.654-5.178A22.5,22.5,0,0,0,41.9,4.658a13.221,13.221,0,0,0-6.346-2.321,1.138,1.138,0,0,1,.217.671v16.22a3.008,3.008,0,0,0-2.3,0V3.009a1.137,1.137,0,0,1,.217-.671,13.208,13.208,0,0,0-6.347,2.321,22.5,22.5,0,0,0-6.33,6.817,34.714,34.714,0,0,0-2.654,5.178,34.355,34.355,0,0,0,3.126,1.473A34.234,34.234,0,0,0,31.966,20.6a2.991,2.991,0,0,0-.344,1.4,3.037,3.037,0,0,0,.136.9,36.616,36.616,0,0,1-11.138-2.638c-1.044-.429-2.082-.913-3.085-1.438-.353,1.021-.677,2.08-.961,3.147a49.88,49.88,0,0,0-1.587,10.361,3.015,3.015,0,0,0-2.293-.182A50.349,50.349,0,0,1,15.5,17.67a36.053,36.053,0,0,1-6.322-4.9c.393-.447.887-1,1.567-1.685l.009.008.012.012a33.619,33.619,0,0,0,5.584,4.387C20.455,5.791,27.285,0,34.623,0S48.79,5.791,52.89,15.491a33.751,33.751,0,0,0,3.816-2.785,3.019,3.019,0,0,0,1.362,1.86,35.921,35.921,0,0,1-4.327,3.1,51.6,51.6,0,0,1,2.87,16.18h3.983a1.15,1.15,0,0,1,0,2.3H56.611A52.269,52.269,0,0,1,54.1,51.3a3.008,3.008,0,0,0-2.007-1.265c.2-.645.4-1.319.582-2a50.39,50.39,0,0,0,1.64-11.883H35.773V47.017a36.578,36.578,0,0,1,13.072,2.82c.423.177.853.366,1.279.564a3.014,3.014,0,0,0-1.416,1.884c-.3-.134-.618-.271-.947-.407a34.308,34.308,0,0,0-11.988-2.559V67.644a13.28,13.28,0,0,0,6.129-2.3,22.484,22.484,0,0,0,6.33-6.817,33.353,33.353,0,0,0,1.7-3.049,3,3,0,0,0,2.329.457A28.9,28.9,0,0,1,44.5,66.281a17.726,17.726,0,0,1-4.762,2.764A14.378,14.378,0,0,1,34.623,70Zm-1.15-20.681A34.3,34.3,0,0,0,18.36,53.35a34.541,34.541,0,0,0,2.653,5.174,22.484,22.484,0,0,0,6.33,6.817,13.275,13.275,0,0,0,6.13,2.3ZM58.582,59h0l-.053-.05-.052-.051a33.845,33.845,0,0,0-4.7-3.812A2.983,2.983,0,0,0,54.623,53c0-.037,0-.075,0-.112a36.036,36.036,0,0,1,5.772,4.672c-.787.573-1.418,1.1-1.81,1.442ZM10.851,36.15H1.139a1.15,1.15,0,0,1,0-2.3h9.712a3.009,3.009,0,0,0,0,2.3Z" transform="translate(-3442.623 8353)" fill="#727272"/>
    <path id="Path_5836" data-name="Path 5836" d="M-3374.389,8389.15h-4a1.151,1.151,0,0,1-1.15-1.15,1.151,1.151,0,0,1,1.15-1.15h4a1.151,1.151,0,0,1,1.15,1.15A1.151,1.151,0,0,1-3374.389,8389.15Z" fill="#727272"/>
    <path id="Subtraction_12" data-name="Subtraction 12" d="M35,70a34.884,34.884,0,0,1-23.737-9.278,3.023,3.023,0,0,0,1.556-1.694A32.7,32.7,0,0,0,60.793,14.894a3.018,3.018,0,0,0,1.814-1.41A34.989,34.989,0,0,1,35,70ZM7.391,56.518h0A35,35,0,0,1,58.737,9.278a3.022,3.022,0,0,0-1.556,1.694A32.7,32.7,0,0,0,9.207,55.106a3.021,3.021,0,0,0-1.815,1.411Z" transform="translate(-3443 8353)" fill="#fe6d05"/>
    <path id="Subtraction_5" data-name="Subtraction 5" d="M5,10a5,5,0,1,1,5-5A5.006,5.006,0,0,1,5,10ZM5,2A3,3,0,1,0,8,5,3,3,0,0,0,5,2Z" transform="translate(-3434 8383)" fill="#727272"/>
    <path id="Subtraction_15" data-name="Subtraction 15" d="M5,10a5,5,0,1,1,5-5A5.006,5.006,0,0,1,5,10ZM5,2A3,3,0,1,0,8,5,3,3,0,0,0,5,2Z" transform="translate(-3438 8406)" fill="#727272"/>
    <path id="Subtraction_16" data-name="Subtraction 16" d="M5,10a5,5,0,1,1,5-5A5.006,5.006,0,0,1,5,10ZM5,2A3,3,0,1,0,8,5,3,3,0,0,0,5,2Z" transform="translate(-3396 8401)" fill="#727272"/>
    <path id="Subtraction_13" data-name="Subtraction 13" d="M5,10a5,5,0,1,1,5-5A5.006,5.006,0,0,1,5,10ZM5,2A3,3,0,1,0,8,5,3,3,0,0,0,5,2Z" transform="translate(-3413 8370)" fill="#727272"/>
    <path id="Subtraction_14" data-name="Subtraction 14" d="M5,10a5,5,0,1,1,5-5A5.006,5.006,0,0,1,5,10ZM5,2A3,3,0,1,0,8,5,3,3,0,0,0,5,2Z" transform="translate(-3388 8360)" fill="#727272"/>
  </g>
</svg>
