<svg xmlns="http://www.w3.org/2000/svg" xmlns:xlink="http://www.w3.org/1999/xlink" width="70" height="70" viewBox="0 0 70 70">
  <defs>
    <clipPath id="clip-path">
      <rect id="Rectangle_179" data-name="Rectangle 179" width="70" height="70" transform="translate(4811 2837)" fill="#fff" stroke="#fff" stroke-width="1"/>
    </clipPath>
  </defs>
  <g id="Mask_Group_38" data-name="Mask Group 38" transform="translate(-4811 -2837)" clip-path="url(#clip-path)">
    <g id="employees_world_wide" transform="translate(4810.579 2907.568)">
      <path id="Path_6957" data-name="Path 6957" d="M10.19-70.346a11.5,11.5,0,0,0-9.3,8.374,14.918,14.918,0,0,0,0,5.546,11.959,11.959,0,0,0,2.662,4.852l.568.624-.652,1.525A32.526,32.526,0,0,0,.638-35.492a30.846,30.846,0,0,0,1.386,10.01A35.214,35.214,0,0,0,13.906-8.041,4.051,4.051,0,0,1,15.07-6.724,11.64,11.64,0,0,0,22.044-.943a14.05,14.05,0,0,0,5.892.055A4.761,4.761,0,0,1,30.57-.915c3.3.471,7.861.458,8.318-.014a.936.936,0,0,0,0-1.151,13.98,13.98,0,0,0-3.563-.194A35.069,35.069,0,0,1,31.776-2.4c-.111-.083.166-.43.929-1.151a11.123,11.123,0,0,0,3.147-4.977l.305-.97,1.511.042a39.911,39.911,0,0,1,9.192,1.428c1.761.5,4.464,1.622,4.353,1.8a2.885,2.885,0,0,1-.749.471c-.846.43-1.054.763-.8,1.289.277.582.79.555,2.093-.125a35.417,35.417,0,0,0,9.663-7.5,35.009,35.009,0,0,0,8.748-19.1,49.44,49.44,0,0,0,0-8.6A34.889,34.889,0,0,0,56.15-63.65a35.3,35.3,0,0,0-16.29-6.53,50.539,50.539,0,0,0-9.15.069,35.405,35.405,0,0,0-9.9,2.925l-.763.347-.624-.582a11.829,11.829,0,0,0-4.8-2.648A18.505,18.505,0,0,0,10.19-70.346ZM13.7-68.558A9.585,9.585,0,0,1,21.24-58.132a10.106,10.106,0,0,1-1.192,3.716l-.388.652-.388-.665a7.967,7.967,0,0,0-2.953-2.759,6.711,6.711,0,0,0-1.151-.485c-.125,0-.069-.166.166-.513a4.341,4.341,0,0,0-1.678-6.253,3.241,3.241,0,0,0-1.872-.36,3.241,3.241,0,0,0-1.872.36,4.977,4.977,0,0,0-2.024,2.052,4.9,4.9,0,0,0,0,3.6,4.72,4.72,0,0,0,.541.86c.153.194.166.25.028.25a6.16,6.16,0,0,0-1.165.471,7.6,7.6,0,0,0-2.981,2.745l-.4.693L3.7-54.084a10.588,10.588,0,0,1-1.262-3.2A9.21,9.21,0,0,1,3.286-63.5a7.691,7.691,0,0,1,1.761-2.44A7.691,7.691,0,0,1,7.487-67.7,9.277,9.277,0,0,1,13.7-68.558Zm24.775-.069a33.557,33.557,0,0,1,7.9,1.705,35.06,35.06,0,0,1,4.755,2.066l.6.347-1.109.582c-6.974,3.619-18.425,4.215-27.007,1.373a4.463,4.463,0,0,1-1.289-.555,8.027,8.027,0,0,0-.555-1.234c-.305-.61-.555-1.123-.555-1.165a27.518,27.518,0,0,1,5.268-2.01A33.767,33.767,0,0,1,38.473-68.627ZM54.5-62.79a32.855,32.855,0,0,1,8.734,8.97c1.123,1.691,1.47,2.329,1.345,2.454-.042.042-4.866,1.081-5.809,1.248-.485.083-.5.083-.665-.513a38.147,38.147,0,0,0-5.67-10.634c-.693-.9-.86-1.178-.707-1.275.111-.055.471-.291.818-.527a3.351,3.351,0,0,1,.776-.416A5.5,5.5,0,0,1,54.5-62.79Zm-41.772-.222a2.6,2.6,0,0,1,0,4.852,2.348,2.348,0,0,1-1.886,0,2.588,2.588,0,0,1-.1-4.8A2.312,2.312,0,0,1,12.727-63.012ZM51.311-59.99a30.687,30.687,0,0,1,3.244,5.241,33.181,33.181,0,0,1,2.01,4.88c0,.139-.43.25-1.553.43-1.816.277-6.6.915-6.918.915-.166,0-.291-.458-.6-2.191a64.943,64.943,0,0,0-1.941-7.847c-.277-.832-.485-1.525-.471-1.539s.665-.194,1.428-.4,1.83-.555,2.357-.763C50.035-61.723,49.925-61.778,51.311-59.99Zm-26.162-.305c.624.139.776.222.721.388a67.385,67.385,0,0,0-2.523,9.968L23.111-48.5l-.776-.083c-1.206-.139-5.074-.665-5.1-.693a6.708,6.708,0,0,1,.846-.61A12.021,12.021,0,0,0,21.67-53.89a9.224,9.224,0,0,0,1.275-5.185V-60.96l.707.236C24.04-60.586,24.72-60.392,25.149-60.295Zm4.52.873c.873.111,2.357.25,3.3.305l1.691.1v11.188h-1c-1.012,0-4.686-.18-7.2-.36a7.382,7.382,0,0,1-1.511-.194c-.139-.083-.139-.319,0-1.123a66.627,66.627,0,0,1,2.371-9.483c.222-.6.347-.763.513-.707C27.978-59.657,28.8-59.532,29.669-59.421Zm14.058.638A67.6,67.6,0,0,1,46.1-49.051c.1.61.083.652-.222.721-.5.111-4.2.347-7.015.444l-2.537.1V-59.061h.707a43.939,43.939,0,0,0,5.047-.485c.541-.1,1.04-.18,1.123-.194S43.519-59.324,43.727-58.784ZM15.389-55.789a6.3,6.3,0,0,1,1.483,1,5.258,5.258,0,0,1,1.414,2.315c0,.61-2.357,2.038-4.145,2.509a11.733,11.733,0,0,1-4.714,0c-1.747-.471-4.159-1.9-4.159-2.468,0-.873,1.428-2.62,2.662-3.244,1.04-.527,1.539-.6,4.131-.568C14.46-56.219,14.5-56.219,15.389-55.789ZM65.9-49.023a37.3,37.3,0,0,1,2.038,6.156c0,.125-.36-.125-.86-.61a11.179,11.179,0,0,0-6.849-3.189l-.97-.1-.222-.818c-.153-.582-.166-.846-.055-.873.083-.028,1.248-.277,2.579-.541s2.745-.582,3.119-.693a2.688,2.688,0,0,1,.79-.125A3.5,3.5,0,0,1,65.9-49.023Zm-59.6-.347A11.971,11.971,0,0,0,10.8-48.011l1.22.083L11.7-46.611a50.526,50.526,0,0,0-1.248,8.721l-.1,1.567H2.218v-.4a38.058,38.058,0,0,1,1.275-7.847c.568-2.024,1.788-5.2,2.01-5.2A5.7,5.7,0,0,1,6.294-49.37ZM17.912-47.5c1.844.263,3.729.513,4.173.568a1.738,1.738,0,0,1,.79.18c0,.055-.1.873-.208,1.83s-.277,3.272-.374,5.157l-.166,3.438H12.02l.1-1.567a59.948,59.948,0,0,1,.721-6.072,37.724,37.724,0,0,1,.984-4.048c.042-.069.208-.083.388-.042S16.055-47.762,17.912-47.5ZM57.3-47.706c.042.222.125.555.166.735.083.319.042.347-.721.513A11.386,11.386,0,0,0,49.2-40.58l-.5.943-.1-1.705c-.055-.943-.18-2.537-.291-3.563s-.194-1.872-.18-1.9,1.317-.194,2.884-.4,3.494-.485,4.3-.61C57.3-48.164,57.217-48.164,57.3-47.706ZM27.52-46.445c1.151.069,3.216.166,4.617.222l2.523.1v9.8H23.8l.1-2.329c.1-2.343.444-6.793.582-7.625.083-.416.125-.444.527-.374C25.246-46.625,26.383-46.528,27.52-46.445Zm18.98.166c.139.832.485,5.282.582,7.625l.1,2.329H36.324v-9.8l2.745-.111c2.218-.083,6.89-.374,7.251-.471C46.375-46.708,46.445-46.514,46.5-46.278ZM61.113-44.85a10.907,10.907,0,0,1,2.385.86,7.386,7.386,0,0,1,2.44,1.775,6.969,6.969,0,0,1,1.761,2.44,9.164,9.164,0,0,1,.846,6.183A11.785,11.785,0,0,1,67.3-30.376l-.222.319-.388-.665a7.967,7.967,0,0,0-2.953-2.759,6.711,6.711,0,0,0-1.151-.485c-.125,0-.069-.166.166-.513a4.341,4.341,0,0,0-1.678-6.253,3.241,3.241,0,0,0-1.872-.36,3.241,3.241,0,0,0-1.872.36A4.977,4.977,0,0,0,55.3-38.681a4.9,4.9,0,0,0,0,3.6,4.72,4.72,0,0,0,.541.86c.153.194.166.25.028.25a6.16,6.16,0,0,0-1.165.471,7.6,7.6,0,0,0-2.981,2.745l-.4.693-.208-.319a10.588,10.588,0,0,1-1.262-3.2A9.21,9.21,0,0,1,50.7-39.79a7.691,7.691,0,0,1,1.761-2.44,7.691,7.691,0,0,1,2.44-1.761A9.277,9.277,0,0,1,61.113-44.85Zm-.97,5.546a2.6,2.6,0,0,1,0,4.852,2.348,2.348,0,0,1-1.886,0,2.588,2.588,0,0,1-.1-4.8A2.312,2.312,0,0,1,60.142-39.3ZM10.454-33.038a54.482,54.482,0,0,0,1.511,9.774c.222.707.194.8-.208.8-.153,0-1.553.291-3.133.638s-2.925.638-2.995.652c-.291.055-1.47-2.87-2.135-5.241a38.058,38.058,0,0,1-1.275-7.847v-.4h8.138Zm11.84,1.733c.1,1.858.263,4.2.374,5.227s.194,1.872.166,1.9-.846.139-1.83.263-3.009.4-4.492.624-2.7.4-2.717.374-.222-.846-.458-1.83a45.821,45.821,0,0,1-1.22-8.36l-.1-1.553H22.127ZM34.66-34.66v9.8l-2.523.1c-2.8.1-6.461.319-7.126.43-.416.069-.444.055-.527-.5C24.318-25.9,24-29.877,23.9-32.276l-.1-2.385Zm12.422,2.315c-.1,2.357-.416,6.475-.582,7.514-.083.5-.125.555-.458.5-.582-.1-4.45-.333-7.182-.43l-2.537-.1v-9.8H47.179Zm15.722.263a5.54,5.54,0,0,1,2.482,2.3c.6,1.04.568,1.206-.36,1.913A9.063,9.063,0,0,1,59.2-26.009a8.809,8.809,0,0,1-4.09-.873c-1.123-.527-2.426-1.525-2.426-1.844,0-.873,1.428-2.62,2.662-3.244,1.04-.527,1.539-.6,4.131-.568C61.875-32.511,61.917-32.511,62.8-32.081ZM50.23-28.726A15.223,15.223,0,0,0,51.741-27.1,12.386,12.386,0,0,0,56.5-24.581c.541.139.984.25,1.012.263a8.816,8.816,0,0,1-.319,1.414c-.014.014-.984-.125-2.163-.305s-3.189-.485-4.492-.652-2.371-.305-2.4-.319.055-.873.18-1.9.236-2.62.291-3.563l.1-1.705.5.943A16.746,16.746,0,0,0,50.23-28.726Zm17.289,2.218a30.384,30.384,0,0,1-1.678,4.617l-.388.776-1.359-.319c-.749-.18-2.232-.513-3.3-.735a9.162,9.162,0,0,1-1.913-.485c.014-.042.1-.416.194-.832l.166-.735,1.123-.1a11.186,11.186,0,0,0,6.516-2.995c.541-.527,1.012-.887,1.026-.818A8.506,8.506,0,0,1,67.518-26.508ZM34.66-20.491l-.014,2.676-.291-.416a16.577,16.577,0,0,0-3.521-3.23,16.266,16.266,0,0,0-2.218-1c-.915-.305-1.123-.416-.818-.43.236-.014,1.234-.069,2.218-.111s2.44-.111,3.23-.125l1.414-.028ZM43.6-22.862a17.483,17.483,0,0,1,2.482.263c.4.388-2.26,11.133-2.925,11.8a4.98,4.98,0,0,1-1.733-.069c-.887-.125-2.385-.263-3.355-.305l-1.747-.1V-23.195l2.468.1C40.137-23.056,42.313-22.945,43.6-22.862Zm6.863.679c4.284.555,6.1.873,6.1,1.081a33.818,33.818,0,0,1-2.01,4.88,33.069,33.069,0,0,1-4.561,6.849l-.347.416-1.636-.513c-.9-.277-1.983-.582-2.412-.665l-.776-.153.61-1.83A60.429,60.429,0,0,0,47.5-20.311c.305-1.691.43-2.149.6-2.149C48.219-22.46,49.287-22.335,50.465-22.183Zm-30.848.6a9.1,9.1,0,0,0-2.3,1.761,19.52,19.52,0,0,0-1.456,1.567l-.263.388-.527-1.345a10.424,10.424,0,0,1-.555-1.691c-.028-.416-.069-.416,3.3-.915C20.879-22.28,20.921-22.28,19.618-21.586Zm7.14.43a8.953,8.953,0,0,1,3.688,1.5,9.513,9.513,0,0,1,4.09,9.067A10.588,10.588,0,0,1,33.329-6.96l-.36.61-.388-.665a7.967,7.967,0,0,0-2.953-2.759,6.71,6.71,0,0,0-1.151-.485c-.125,0-.069-.166.166-.513a4.341,4.341,0,0,0-1.678-6.253,3.241,3.241,0,0,0-1.872-.36,3.241,3.241,0,0,0-1.872.36A4.977,4.977,0,0,0,21.2-14.973a4.9,4.9,0,0,0,0,3.6,4.72,4.72,0,0,0,.541.86c.153.194.166.25.028.25a6.16,6.16,0,0,0-1.165.471,7.6,7.6,0,0,0-2.981,2.745l-.4.693-.208-.319a11.88,11.88,0,0,1-1.165-2.759,11.733,11.733,0,0,1,0-4.714,9.59,9.59,0,0,1,7.514-7A8.492,8.492,0,0,1,26.758-21.157ZM12.949-20.145c.139.444.582,1.553.97,2.468L14.64-16l-.333,1.026a10.451,10.451,0,0,0-.43,2.87l-.083,1.844-1.1-1.012a36.3,36.3,0,0,1-4.131-4.672,26.872,26.872,0,0,1-2.191-3.535,8.878,8.878,0,0,1,2.4-.665c1.3-.291,2.634-.568,2.939-.638C12.672-21,12.686-20.99,12.949-20.145ZM61.9-20.214c1.456.305,2.662.582,2.676.6.125.111-.194.707-1.206,2.232A33.02,33.02,0,0,1,54.4-8.138l-1.3.9-.9-.485a6.342,6.342,0,0,1-.9-.527,12.923,12.923,0,0,1,.929-1.206,38.374,38.374,0,0,0,5.878-10.9C58.312-21.06,57.869-21.073,61.9-20.214ZM26.037-15.6a2.6,2.6,0,0,1,0,4.852,2.348,2.348,0,0,1-1.886,0,2.588,2.588,0,0,1-.1-4.8A2.312,2.312,0,0,1,26.037-15.6ZM28.7-8.374a6.3,6.3,0,0,1,1.483,1A5.258,5.258,0,0,1,31.6-5.06c0,.61-2.357,2.038-4.145,2.523a11.733,11.733,0,0,1-4.714,0c-1.761-.471-4.159-1.9-4.159-2.482,0-.873,1.428-2.62,2.662-3.244,1.04-.527,1.539-.6,4.131-.568C27.77-8.8,27.811-8.8,28.7-8.374Z" fill="#727272"/>
      <path id="Path_6958" data-name="Path 6958" d="M44.226-3.369a.809.809,0,0,0-.305,1.331c.735.665,1.844-.263,1.248-1.04A.948.948,0,0,0,44.226-3.369Z" fill="#727272"/>
      <g id="Group_735" data-name="Group 735">
        <g id="Group_732" data-name="Group 732" transform="translate(0 -71.081)">
          <path id="Path_6959" data-name="Path 6959" d="M59.2,24.359a11.293,11.293,0,0,1,11.154,11.3A11.147,11.147,0,0,1,59.231,46.819a11.23,11.23,0,1,1-.031-22.46Zm0,1.669a9.5,9.5,0,1,1-.139,18.989,9.293,9.293,0,0,1-9.428-9.39A9.587,9.587,0,0,1,59.2,26.028Z" fill="#fe6d05" fill-rule="evenodd"/>
        </g>
        <g id="Group_733" data-name="Group 733" transform="translate(0 -70.984)">
          <path id="Path_6960" data-name="Path 6960" d="M59.2,29.842a4.263,4.263,0,1,1-4.263,4.263A4.265,4.265,0,0,1,59.2,29.842Zm0,1.629a2.634,2.634,0,1,1-2.634,2.634A2.635,2.635,0,0,1,59.2,31.471Z" fill="#fe6d05" fill-rule="evenodd"/>
        </g>
        <g id="Group_734" data-name="Group 734" transform="translate(0 -70.984)">
          <path id="Path_6961" data-name="Path 6961" d="M51.12,41.946a6.252,6.252,0,0,1,6.146-5.128h3.867a6.252,6.252,0,0,1,6.11,4.942c-.4.409-.89.877-1.492,1.405a5.009,5.009,0,0,0-5-4.8h-3.1a5.009,5.009,0,0,0-5.006,5.006v.056A10.012,10.012,0,0,1,51.12,41.946Z" fill="#fe6d05" fill-rule="evenodd"/>
        </g>
      </g>
      <g id="Group_739" data-name="Group 739" transform="translate(-47.481 -23.846)">
        <g id="Group_736" data-name="Group 736" transform="translate(0 -71.081)">
          <path id="Path_6962" data-name="Path 6962" d="M59.2,24.359a11.293,11.293,0,0,1,11.154,11.3A11.147,11.147,0,0,1,59.231,46.819a11.23,11.23,0,1,1-.031-22.46Zm0,1.669a9.5,9.5,0,1,1-.139,18.989,9.293,9.293,0,0,1-9.428-9.39A9.587,9.587,0,0,1,59.2,26.028Z" fill="#fe6d05" fill-rule="evenodd"/>
        </g>
        <g id="Group_737" data-name="Group 737" transform="translate(0 -70.984)">
          <path id="Path_6963" data-name="Path 6963" d="M59.2,29.842a4.263,4.263,0,1,1-4.263,4.263A4.265,4.265,0,0,1,59.2,29.842Zm0,1.629a2.634,2.634,0,1,1-2.634,2.634A2.635,2.635,0,0,1,59.2,31.471Z" fill="#fe6d05" fill-rule="evenodd"/>
        </g>
        <g id="Group_738" data-name="Group 738" transform="translate(0 -70.984)">
          <path id="Path_6964" data-name="Path 6964" d="M51.12,41.946a6.252,6.252,0,0,1,6.146-5.128h3.867a6.252,6.252,0,0,1,6.11,4.942c-.4.409-.89.877-1.492,1.405a5.009,5.009,0,0,0-5-4.8h-3.1a5.009,5.009,0,0,0-5.006,5.006v.056A10.012,10.012,0,0,1,51.12,41.946Z" fill="#fe6d05" fill-rule="evenodd"/>
        </g>
      </g>
      <g id="Group_743" data-name="Group 743" transform="translate(-34.029 23.694)">
        <g id="Group_740" data-name="Group 740" transform="translate(0 -71.081)">
          <path id="Path_6965" data-name="Path 6965" d="M59.2,24.359a11.293,11.293,0,0,1,11.154,11.3A11.147,11.147,0,0,1,59.231,46.819a11.23,11.23,0,1,1-.031-22.46Zm0,1.669a9.5,9.5,0,1,1-.139,18.989,9.293,9.293,0,0,1-9.428-9.39A9.587,9.587,0,0,1,59.2,26.028Z" fill="#fe6d05" fill-rule="evenodd"/>
        </g>
        <g id="Group_741" data-name="Group 741" transform="translate(0 -70.984)">
          <path id="Path_6966" data-name="Path 6966" d="M59.2,29.842a4.263,4.263,0,1,1-4.263,4.263A4.265,4.265,0,0,1,59.2,29.842Zm0,1.629a2.634,2.634,0,1,1-2.634,2.634A2.635,2.635,0,0,1,59.2,31.471Z" fill="#fe6d05" fill-rule="evenodd"/>
        </g>
        <g id="Group_742" data-name="Group 742" transform="translate(0 -70.984)">
          <path id="Path_6967" data-name="Path 6967" d="M51.12,41.946a6.252,6.252,0,0,1,6.146-5.128h3.867a6.252,6.252,0,0,1,6.11,4.942c-.4.409-.89.877-1.492,1.405a5.009,5.009,0,0,0-5-4.8h-3.1a5.009,5.009,0,0,0-5.006,5.006v.056A10.012,10.012,0,0,1,51.12,41.946Z" fill="#fe6d05" fill-rule="evenodd"/>
        </g>
      </g>
    </g>
  </g>
</svg>
