<svg xmlns="http://www.w3.org/2000/svg" width="69.95" height="70" viewBox="0 0 69.95 70">
  <g id="earth-globe" transform="translate(-0.227 511.907)">
    <path id="Path_7073" data-name="Path 7073" d="M51.837-511.415A33.26,33.26,0,0,0,39.845-507.9,34.827,34.827,0,0,0,24.34-492.7c-.9,1.8-.93,2.092-.246,2.721a1.256,1.256,0,0,0,1.586.178,11.062,11.062,0,0,0,1.2-1.873,32.508,32.508,0,0,1,9.407-10.9l.807-.588,4.239,1.613c2.338.889,4.334,1.7,4.43,1.8a.679.679,0,0,1,.191.451c0,.848,1.258,2.42,2.393,2.981,1.613.807,2.967.684,5.237-.479,1.928-1,2.666-1.19,4.061-1.121a6.043,6.043,0,0,1,5.647,6.317,2.349,2.349,0,0,1-.957,2,13.353,13.353,0,0,1-2.215.67c-2.612.629-3.664,1.326-4.4,2.953a48.884,48.884,0,0,0-1.559,7.821,4.281,4.281,0,0,0,1.422,3.268c1,1,1.7,1.272,3.623,1.436.725.068,1.641.15,2.037.205.67.082.752.068,1.135-.3a1.078,1.078,0,0,0,.4-.957c0-1.08-.807-1.518-3.2-1.682-1.477-.109-1.736-.191-2.256-.752s-.52-1.313.123-4.526c.615-3.117.875-3.842,1.49-4.211a15.92,15.92,0,0,1,2.27-.7c2.092-.533,2.8-.889,3.61-1.8a4.841,4.841,0,0,0,1.162-3.746,7.851,7.851,0,0,0-2.516-6.153,8.46,8.46,0,0,0-6.686-2.557,9.264,9.264,0,0,0-4.375,1.381,9.034,9.034,0,0,1-1.887.766,2.166,2.166,0,0,1-2-1.737,3.447,3.447,0,0,0-1.326-1.928c-.205-.137-1.914-.82-3.774-1.531l-3.391-1.285,1.627-.793a32.173,32.173,0,0,1,16.134-2.994,35.2,35.2,0,0,1,7.6,1.449c.779.219.971.232,1.34.068a1.443,1.443,0,0,0,.834-1.231,1.485,1.485,0,0,0-.779-1.217,34.373,34.373,0,0,0-6.809-1.6A43.876,43.876,0,0,0,51.837-511.415Z" transform="translate(-20.193 -0.313)" fill="#7f7f7f"/>
    <path id="Path_7074" data-name="Path 7074" d="M353.732-511.646a13.637,13.637,0,0,0-4.184,1.791,11.22,11.22,0,0,0-3.582,4.116,11.551,11.551,0,0,0,.547,11.554c.574.834,8.108,10.515,8.573,11.007a1.337,1.337,0,0,0,1.572.355c.191-.1,2.3-2.666,4.676-5.715,5.428-6.96,5.934-7.876,6.167-11.28a11.042,11.042,0,0,0-3.35-8.7A11.15,11.15,0,0,0,353.732-511.646Zm4.184,2.666a8.89,8.89,0,0,1,5.934,4.581,9.137,9.137,0,0,1,.971,3.76,9.7,9.7,0,0,1-1.627,5.21c-.916,1.272-7.028,9.079-7.11,9.079s-3.582-4.471-6.221-7.917c-1.832-2.406-2.434-3.924-2.434-6.167a8.152,8.152,0,0,1,1-4.116A8.738,8.738,0,0,1,357.916-508.98Z" transform="translate(-297.353)" fill="#fe6d05"/>
    <path id="Path_7075" data-name="Path 7075" d="M390.519-468.7a5.764,5.764,0,0,0-4.143,6.44,5.767,5.767,0,0,0,4.717,4.731,5.734,5.734,0,0,0,6.618-5.264,5.511,5.511,0,0,0-1.668-4.43A5.639,5.639,0,0,0,390.519-468.7Zm2.858,2.885a3.368,3.368,0,0,1,1.149.971,2.187,2.187,0,0,1,.41,1.668,2.187,2.187,0,0,1-.41,1.668,3.114,3.114,0,0,1-3.692,1.08,2.8,2.8,0,0,1-1.764-2.748,2.514,2.514,0,0,1,.834-2.106A2.872,2.872,0,0,1,393.377-465.814Z" transform="translate(-333.279 -37.122)" fill="#fe6d05"/>
    <path id="Path_7076" data-name="Path 7076" d="M481.8-333.531c-.492.506-.52.957-.15,2.461a32.555,32.555,0,0,1-.205,16.367c-.383,1.436-.4,1.723-.123,2.242a1.28,1.28,0,0,0,2.2.055,25.374,25.374,0,0,0,1.354-5.168,36.149,36.149,0,0,0-.629-14.343c-.355-1.449-.656-1.846-1.449-1.955A.9.9,0,0,0,481.8-333.531Z" transform="translate(-415.149 -153.668)" fill="#7f7f7f"/>
    <path id="Path_7077" data-name="Path 7077" d="M8.668-327.637a1.49,1.49,0,0,0-.3,2.283,1.292,1.292,0,0,0,2.147-.451A1.37,1.37,0,0,0,8.668-327.637Z" transform="translate(-6.681 -158.932)" fill="#7f7f7f"/>
    <path id="Path_7078" data-name="Path 7078" d="M11.8-312.624a13.992,13.992,0,0,0-7.848,4.2A13.809,13.809,0,0,0,2.192-291.9c.7,1.162,10.816,14.111,11.171,14.3a1.492,1.492,0,0,0,.643.164,1.492,1.492,0,0,0,.643-.164c.26-.15,8.847-11.021,10.433-13.222a14.506,14.506,0,0,0,2.393-5.346,3.942,3.942,0,0,1,.205-.793c.068-.123.684.656,1.9,2.42.984,1.422,1.914,2.694,2.065,2.83a1.433,1.433,0,0,0,.738.246,1.323,1.323,0,0,0,1.285-1.86c-.109-.246-1.586-2.406-3.254-4.813-2.283-3.282-3.1-4.581-3.309-5.2a13.729,13.729,0,0,0-6.755-7.889A13.4,13.4,0,0,0,11.8-312.624Zm5.278,3.008a11.045,11.045,0,0,1,7.534,7.52A8.207,8.207,0,0,1,25-299.087a10.063,10.063,0,0,1-.246,2.735,13.3,13.3,0,0,1-1.559,3.514c-.889,1.3-9.065,11.663-9.188,11.663s-8.3-10.364-9.188-11.663a13.3,13.3,0,0,1-1.559-3.514,10.063,10.063,0,0,1-.246-2.735A8.207,8.207,0,0,1,3.4-302.1a11.168,11.168,0,0,1,8.929-7.862A12.739,12.739,0,0,1,17.082-309.616Z" transform="translate(0 -171.881)" fill="#fe6d05"/>
    <path id="Path_7079" data-name="Path 7079" d="M48.893-267.706a8.507,8.507,0,0,0-4.909,3.842,9.338,9.338,0,0,0-.984,3.8,8.4,8.4,0,0,0,2.065,5.305A7.942,7.942,0,0,0,57.89-256.3a9.3,9.3,0,0,0,.971-3.76,9.339,9.339,0,0,0-.984-3.8A8.441,8.441,0,0,0,52.9-267.72,10.132,10.132,0,0,0,48.893-267.706ZM52.448-265a5.385,5.385,0,0,1,3.063,2.543,5.229,5.229,0,0,1-2.365,7.069A3.8,3.8,0,0,1,50.93-255a3.8,3.8,0,0,1-2.215-.383,5.2,5.2,0,0,1-.492-9.079,5.875,5.875,0,0,1,1.121-.52A6.8,6.8,0,0,1,52.448-265Z" transform="translate(-36.925 -210.632)" fill="#fe6d05"/>
    <path id="Path_7080" data-name="Path 7080" d="M418.963-257.794a1.492,1.492,0,0,0-.861,1.381,1.6,1.6,0,0,0,.67,1.709c1.066.561,2.037-.178,2.037-1.559a1.412,1.412,0,0,0-.752-1.449A1.1,1.1,0,0,0,418.963-257.794Z" transform="translate(-360.725 -219.273)" fill="#7f7f7f"/>
    <path id="Path_7081" data-name="Path 7081" d="M393.957-219.694c-.684.41-.957.793-.957,1.395a1.336,1.336,0,0,0,1.025,1.272,2.458,2.458,0,0,0,1.928-.807,1,1,0,0,0,.287-.971A1.407,1.407,0,0,0,393.957-219.694Z" transform="translate(-339.068 -252.013)" fill="#7f7f7f"/>
    <path id="Path_7082" data-name="Path 7082" d="M304.418-213.826a1.37,1.37,0,0,0-.451,2.16,2.4,2.4,0,0,0,1.955.4,1.353,1.353,0,0,0,.246-2.53A3.041,3.041,0,0,0,304.418-213.826Z" transform="translate(-261.904 -257.225)" fill="#7f7f7f"/>
    <path id="Path_7083" data-name="Path 7083" d="M349.418-213.826a1.37,1.37,0,0,0-.451,2.16,2.4,2.4,0,0,0,1.955.4,1.353,1.353,0,0,0,.246-2.53A3.041,3.041,0,0,0,349.418-213.826Z" transform="translate(-300.751 -257.225)" fill="#7f7f7f"/>
    <path id="Path_7084" data-name="Path 7084" d="M272.121-194.669A3.166,3.166,0,0,0,271-192.933a1.448,1.448,0,0,0,1.381,1.408,2.013,2.013,0,0,0,1.627-1.955A1.358,1.358,0,0,0,272.121-194.669Z" transform="translate(-233.75 -273.769)" fill="#7f7f7f"/>
    <path id="Path_7085" data-name="Path 7085" d="M157.535-180.747a1.41,1.41,0,0,0-.451.574c-.178.451-.943,9.585-.943,11.171a7.4,7.4,0,0,0,2.133,5.4l.875.916-1.477.684a31.569,31.569,0,0,1-16.381,2.9,15.336,15.336,0,0,1-1.531-.191,7.214,7.214,0,0,1,.547-1.149l.588-1.108h.684a5.528,5.528,0,0,0,5.251-3.145,6.033,6.033,0,0,0,.438-2.666,5.241,5.241,0,0,1,.438-2.625c.424-.834.451-1.149.137-1.682-.561-.957-1.737-.889-2.42.137-.574.875-.766,1.709-.875,3.774-.1,1.832-.123,1.969-.479,2.434-.6.779-1.053.943-2.83,1.039a7.455,7.455,0,0,0-1.846.232,11.5,11.5,0,0,0-1.422,2.229c-.875,1.572-1.19,2.037-1.367,2-.123-.041-.643-.191-1.176-.328a34.06,34.06,0,0,1-6.262-2.475c-1.272-.67-1.723-.7-2.283-.191a1.193,1.193,0,0,0-.273,1.654c.232.369.67.643,2.229,1.395a34.383,34.383,0,0,0,12.388,3.418,35.421,35.421,0,0,0,24.393-7.26,50.383,50.383,0,0,0,4.1-3.774c.643-.711.779-.943.779-1.34a1.331,1.331,0,0,0-1.6-1.367,11.6,11.6,0,0,0-2.092,1.75,39.531,39.531,0,0,1-3.309,2.871l-1.6,1.2-.438-.232a6.553,6.553,0,0,1-2.174-2.311c-.492-1.039-.492-2.352-.014-8.04.4-4.581.41-5.059.219-5.428a1.578,1.578,0,0,0-.465-.547A1.725,1.725,0,0,0,157.535-180.747Z" transform="translate(-108.909 -285.695)" fill="#7f7f7f"/>
    <path id="Path_7086" data-name="Path 7086" d="M248.1-156.558a2.272,2.272,0,0,0-.82,1.914,1.177,1.177,0,0,0,1.135,1.012,1.014,1.014,0,0,0,.971-.3c1.272-1.067,1.08-2.707-.328-2.9A.988.988,0,0,0,248.1-156.558Z" transform="translate(-213.252 -306.508)" fill="#7f7f7f"/>
    <path id="Path_7087" data-name="Path 7087" d="M459.875-142.583a1.624,1.624,0,0,0-.875,1.326,1.346,1.346,0,0,0,2.53.6,1.194,1.194,0,0,0-.164-1.5A1.4,1.4,0,0,0,459.875-142.583Z" transform="translate(-396.044 -318.76)" fill="#7f7f7f"/>
    <path id="Path_7088" data-name="Path 7088" d="M222.274-119.329a2.535,2.535,0,0,0-1.326.875,1.289,1.289,0,0,0,1.121,2,2.35,2.35,0,0,0,1.873-1.08A1.36,1.36,0,0,0,222.274-119.329Z" transform="translate(-190.384 -338.854)" fill="#7f7f7f"/>
    <path id="Path_7089" data-name="Path 7089" d="M180.93-99.7a1.458,1.458,0,0,0-.93,1.258,1.317,1.317,0,0,0,.779,1.272c.424.205.52.205,1.135,0,1.313-.438,1.778-1.586.971-2.406A1.6,1.6,0,0,0,180.93-99.7Z" transform="translate(-155.192 -355.611)" fill="#7f7f7f"/>
  </g>
</svg>
