<svg xmlns="http://www.w3.org/2000/svg" width="105.99" height="95" viewBox="0 0 105.99 95">
  <g id="accomodation" transform="translate(-6 480.105)">
    <path id="Path_7086" data-name="Path 7086" d="M34.66-479.828c-.191.191-.254,1.569-.254,4.854,0,5.363-.021,5.278,1.823,5.278h1.145v9.327H24.336c-12.761,0-13.037,0-13.461.424s-.424.7-.424,32.433V-395.5H8.565c-1.441,0-1.971.085-2.226.339-.3.276-.339,1.039-.339,4.96,0,4.388.021,4.664.4,4.876.572.3,104.612.3,105.185,0,.382-.212.4-.488.4-4.876,0-3.922-.042-4.685-.339-4.96-.254-.254-.784-.339-2.226-.339h-1.887v-32.009c0-31.733,0-32.009-.424-32.433s-.7-.424-13.461-.424H80.617V-469.7h1.145c1.844,0,1.823.085,1.823-5.3,0-4.388-.021-4.664-.4-4.876C82.546-480.21,35-480.167,34.66-479.828Zm46.593,4.939v2.862H36.737v-5.723H81.253ZM78.285-432.6v37.1h-7v-15.22c0-13.418-.042-15.263-.339-15.687l-.318-.466H47.357l-.318.466c-.3.424-.339,2.268-.339,15.687v15.22h-7V-469.7h38.58Zm-40.955,5.872-.064,31.119H12.889l-.064-31.119-.042-31.1h24.59Zm67.834,0-.064,31.119H80.723l-.064-31.119-.042-31.1h24.59Zm-36.418,16.7V-395.5h-19.5v-29.041h19.5Zm40.912,19.735v2.841H8.332v-5.681H109.658Z" fill="#7f7f7f"/>
    <path id="Path_7087" data-name="Path 7087" d="M198.551-394.555l-.551.424v4.664c0,4.367.021,4.664.424,5.066.424.424.7.424,11.871.424s11.447,0,11.871-.424c.4-.4.424-.7.424-5.066v-4.664l-.551-.424c-.551-.445-.763-.445-11.744-.445S199.1-395,198.551-394.555Zm21.495,5.172v3.074h-19.5v-6.147h19.5Z" transform="translate(-151.3 -67.064)" fill="#fe6d05"/>
    <path id="Path_7088" data-name="Path 7088" d="M198.339-316.534c-.276.4-.339,1.251-.339,4.939s.064,4.536.339,4.939l.318.466h23.275l.318-.466c.276-.4.339-1.251.339-4.939s-.064-4.536-.339-4.939l-.318-.466H198.657Zm21.707,4.939v3.074h-19.5v-6.147h19.5Z" transform="translate(-151.3 -128.53)" fill="#fe6d05"/>
    <path id="Path_7089" data-name="Path 7089" d="M67.53-349.47l-.53.509v11.235l.572.445c.551.424.742.445,5.851.382,4.939-.064,5.3-.085,5.575-.466.233-.339.3-1.526.3-6.041a57.867,57.867,0,0,0-.17-5.872c-.424-.636-1.166-.721-6.084-.721h-5Zm9.221,6.041v4.028H69.544v-8.055h7.207Z" transform="translate(-48.069 -102.525)" fill="#fe6d05"/>
    <path id="Path_7090" data-name="Path 7090" d="M67.424-258.576c-.4.4-.424.7-.424,6,0,4.685.042,5.639.339,6.041.318.466.382.466,5.787.466,5.024,0,5.49-.021,5.808-.382.318-.339.36-1.081.36-6.041,0-5.384-.021-5.681-.424-6.084s-.7-.424-5.723-.424S67.827-258.979,67.424-258.576Zm9.327,6.147v4.028H69.544v-8.055h7.207Z" transform="translate(-48.069 -174.235)" fill="#fe6d05"/>
    <path id="Path_7091" data-name="Path 7091" d="M67.339-167.534c-.3.4-.339,1.357-.339,6.041,0,5.3.021,5.6.424,6s.7.424,5.808.424c5.342,0,5.406,0,5.723-.466.3-.4.339-1.335.339-6s-.042-5.6-.339-6c-.318-.466-.382-.466-5.808-.466S67.657-168,67.339-167.534Zm9.412,6v4.134H69.544v-8.267h7.207Z" transform="translate(-48.069 -245.945)" fill="#fe6d05"/>
    <path id="Path_7092" data-name="Path 7092" d="M387.742-349.746a1.93,1.93,0,0,0-.572.466,57.862,57.862,0,0,0-.17,5.872c0,4.515.064,5.7.3,6.041.276.382.636.4,5.575.466,5.109.064,5.3.042,5.851-.382l.572-.445v-11.235l-.53-.509-.509-.53h-5.045C389.862-349.979,388.018-349.915,387.742-349.746Zm9.009,6.317v4.028h-7.207v-8.055h7.207Z" transform="translate(-300.235 -102.525)" fill="#fe6d05"/>
    <path id="Path_7093" data-name="Path 7093" d="M387.424-258.576c-.4.4-.424.7-.424,6.105,0,5.257.021,5.723.382,6.041.339.318,1.06.36,5.829.36,5.363,0,5.427,0,5.745-.466.3-.4.339-1.357.339-6.041,0-5.3-.021-5.6-.424-6s-.7-.424-5.723-.424S387.827-258.979,387.424-258.576Zm9.327,6.147v4.028h-7.207v-8.055h7.207Z" transform="translate(-300.235 -174.235)" fill="#fe6d05"/>
    <path id="Path_7094" data-name="Path 7094" d="M387.339-167.534c-.3.4-.339,1.335-.339,6s.042,5.6.339,6c.318.466.382.466,5.723.466,5.109,0,5.405-.021,5.808-.424s.424-.7.424-6c0-4.685-.042-5.639-.339-6.041-.318-.466-.382-.466-5.808-.466S387.657-168,387.339-167.534Zm9.412,6v4.134h-7.207v-8.267h7.207Z" transform="translate(-300.235 -245.945)" fill="#fe6d05"/>
  </g>
</svg>
