<svg xmlns="http://www.w3.org/2000/svg" width="105.712" height="95" viewBox="0 0 105.712 95">
  <g id="agriculture" transform="translate(0 486)">
    <path id="Path_7095" data-name="Path 7095" d="M35.726-480.321c-9.892,3.3-17.161,5.824-17.368,6.03C17.657-473.527,0-444.946,0-444.574c0,.743.6,1.26,3.511,3.077L6.4-439.7v45.6H5.245c-1.342,0-1.879.248-2.168.971a1.454,1.454,0,0,0,.888,1.9c.888.31,96.915.31,97.8,0a1.454,1.454,0,0,0,.888-1.9c-.289-.723-.826-.971-2.168-.971H99.332v-45.6l2.912-1.8c2.994-1.879,3.593-2.457,3.449-3.263-.083-.454-17.595-28.7-18.3-29.51-.165-.207-7.352-2.705-17.368-6.051-9.4-3.118-17.12-5.679-17.161-5.679C52.8-486,45.1-483.439,35.726-480.321Zm33.393,3.015,16.128,5.369,8.4,13.444c4.605,7.372,8.364,13.444,8.322,13.485-.041.021-.743.475-1.59.991-1.4.867-1.569.929-1.776.6-.145-.186-3.3-5.225-7.021-11.193-3.738-5.968-7.269-11.606-7.868-12.515l-1.074-1.693L68-473.692c-8.033-2.685-14.848-4.874-15.137-4.874-.764,0-19.6,6.319-20.052,6.732a1.558,1.558,0,0,0,.888,2.561c.268,0,4.708-1.4,9.871-3.118l9.4-3.118,13.836,4.626,13.836,4.646,7.806,12.453,7.785,12.473V-394.1H75.17v-31.6h1.218a2.484,2.484,0,0,0,1.693-.392c.475-.392.5-.516.558-3.862.083-3.9-.021-4.688-.6-5.266-.392-.392-.909-.392-25.174-.392s-24.781,0-25.174.392c-.578.578-.681,1.363-.6,5.266.062,3.345.083,3.469.558,3.862a2.484,2.484,0,0,0,1.693.392h1.218v31.6H9.5v-47.208l7.806-12.473,7.785-12.453,1.59-.537a7.267,7.267,0,0,0,1.941-.888,1.616,1.616,0,0,0-.021-2.024c-.516-.578-1.322-.516-3.573.227l-1.941.64-1.074,1.693c-.6.909-4.13,6.546-7.868,12.515-3.717,5.968-6.877,11.007-7.021,11.193-.207.33-.372.268-1.776-.6-.847-.516-1.549-.971-1.59-.991-.041-.041,3.717-6.113,8.322-13.485l8.4-13.444,16.025-5.369c8.839-2.953,16.128-5.369,16.252-5.369C52.867-482.7,60.239-480.28,69.119-477.306Zm6.464,46.651v1.859H30.151v-3.717H75.583Zm-6.4,5.039c0,.041-.888.847-1.962,1.755-1.776,1.528-1.962,1.755-1.962,2.4a1.451,1.451,0,0,0,1.446,1.549c.454,0,1.156-.454,2.932-1.941l2.334-1.921.062,6.877c.021,3.779.021,10.036,0,13.9l-.062,7.021-7.951-6.608c-4.378-3.635-8.116-6.774-8.322-6.98-.351-.33-.207-.5,3.16-3.3a29.238,29.238,0,0,0,3.717-3.428,1.434,1.434,0,0,0-1.363-1.962c-.6,0-1.26.475-4.419,3.1a45.715,45.715,0,0,1-3.924,3.1c-.227,0-16.314-13.341-16.314-13.526,0-.062,7.352-.1,16.314-.1C61.85-425.7,69.181-425.658,69.181-425.616Zm-27.053,8.8c4.151,3.428,7.7,6.4,7.909,6.608.372.33.021.64-7.641,7.021-4.4,3.676-8.178,6.815-8.364,6.98-.351.289-.372-.372-.372-13.692v-14l.475.413C34.384-423.262,37.977-420.268,42.128-416.819Zm19.123,15.943,8.013,6.67-8.2.062c-4.5.021-11.9.021-16.4,0l-8.2-.062,8.137-6.774c4.481-3.738,8.24-6.732,8.384-6.67S56.852-404.552,61.251-400.876Z" fill="#fe6d05"/>
    <path id="Subtraction_33" data-name="Subtraction 33" d="M6629.769-4179.922c-7.943,0-15.793-.008-22.7-.024l-.173-3.078h.57v-31.6h-1.219a2.5,2.5,0,0,1-1.693-.393c-.475-.391-.5-.536-.558-3.862-.081-3.843.014-4.68.6-5.266.391-.393.856-.393,25.174-.393s24.781,0,25.172.393c.585.583.68,1.42.6,5.266-.062,3.326-.083,3.47-.558,3.862a2.5,2.5,0,0,1-1.693.393h-1.219v31.6h.365l-.583,3.08C6644.934-4179.93,6637.3-4179.922,6629.769-4179.922Zm.118-16.65c-.212,0-3.892,2.93-8.378,6.671l-8.137,6.773,8.2.062c2.17.011,5.082.017,8.2.017s6.028-.006,8.2-.017l8.2-.062-8.012-6.668c-4.4-3.676-8.115-6.712-8.261-6.774Zm8.227-10.613a1.447,1.447,0,0,1,1.213.625,1.427,1.427,0,0,1,.149,1.336,29.547,29.547,0,0,1-3.717,3.427c-2.658,2.218-3.281,2.768-3.291,3.074a.311.311,0,0,0,.131.231c.2.2,3.881,3.292,8.321,6.979l7.952,6.608.063-7.021c.02-3.873.02-10.107,0-13.9l-.062-6.877-2.334,1.921c-1.755,1.469-2.467,1.94-2.931,1.94a1.451,1.451,0,0,1-1.446-1.549c0-.64.183-.864,1.962-2.4,1.057-.895,1.962-1.713,1.962-1.755-.041-.043-7.664-.082-16.313-.082-8.09,0-16.292.035-16.315.1,0,.1,4.184,3.609,8.072,6.833s8.126,6.694,8.244,6.694a46.239,46.239,0,0,0,3.924-3.1C6636.9-4206.751,6637.52-4207.186,6638.113-4207.186Zm-27.549-5.639h0v14c0,12.012.017,13.738.279,13.738a.156.156,0,0,0,.092-.047c.086-.076.956-.8,2.271-1.9l.191-.159.9-.751c1.4-1.17,3.15-2.625,5-4.172,6.505-5.418,7.73-6.451,7.737-6.849a.231.231,0,0,0-.1-.174c-.2-.2-3.7-3.136-7.91-6.608-4.783-3.973-7.77-6.467-7.991-6.67Zm-3.511-8.61v3.717h45.432v-3.717h-45.432Z" transform="translate(-6576.902 3788.922)" fill="#7f7f7f"/>
    <path id="Path_7096" data-name="Path 7096" d="M190.454-383.525l-.454.475v21.787l.516.5.5.516h25.236l.5-.516.516-.5v-21.849l-.475-.434-.475-.454H190.888Zm23.707,11.4v8.777H205.3l-.062-6.422-.062-6.422-.578-.5a2.054,2.054,0,0,0-.971-.5,2.053,2.053,0,0,0-.971.5l-.578.5-.062,6.422-.062,6.422H193.1V-380.9h21.064Z" transform="translate(-150.763 -80.936)" fill="#7f7f7f"/>
  </g>
</svg>
