<svg xmlns="http://www.w3.org/2000/svg" width="95.373" height="95" viewBox="0 0 95.373 95">
  <g id="Commercial" transform="translate(0 511)">
    <path id="Path_7035" data-name="Path 7035" d="M32.17-510.776c-.652.5-.689,1.155-.689,11.81v10.506H12.872l-.522.447-.522.447-.056,17.715-.037,17.715H.764l-.373.484C0-451.15,0-451.076,0-434.031v17.119l.466.447L.913-416H94.46l.447-.466.466-.447v-21.459l-.466-.447-.447-.466H84.569v-5.979a44.343,44.343,0,0,0-.2-6.333,1.406,1.406,0,0,0-2.384.13c-.149.335-.2,4.936-.2,16.56v16.113H57.559v-42.1H81.737l.075,2.068c.056,1.9.093,2.086.5,2.422a1.278,1.278,0,0,0,1.77-.037l.484-.373v-3.036c0-2.924-.019-3.036-.428-3.427l-.428-.41H63.892l-.037-23.3-.056-23.3-.447-.354c-.41-.335-.95-.354-15.647-.354C35.821-511,32.412-510.944,32.17-510.776ZM61.1-485.946v22.26H58.36c-2.962.019-3.241.093-3.6,1.006-.13.335-.186,7.637-.186,22.2v21.682H44.147v-34.181c0-24.644-.056-34.293-.2-34.61-.279-.615-.913-.875-2.124-.875H40.794v-1.565c0-1.4-.056-1.639-.428-2.086a1.326,1.326,0,0,0-2.03-.093c-.261.354-.335.764-.335,2.086v1.658H34.461v-19.745H61.1ZM41.26-481.382v4.191L28-477.135l-13.281.037v-8.569L28-485.629l13.263.056Zm.093,10.431v3.353H14.716V-474.3H41.353Zm0,9.5v3.353H14.716V-464.8H41.353Zm-.037,9.537.037,3.316H14.716V-455.3L28-455.267l13.263.056Zm-29.58,17.845v15.275H2.794v-30.549h8.941Zm29.58-8.252L41.26-439l-6.762.093c-6.426.093-6.78.112-7.041.447a1.561,1.561,0,0,0,.13,1.9c.373.335.8.354,7.078.41l6.687.056-.037,3.3-.056,3.3L28-429.449l-13.281.037V-436.1l3.93-.056c3.875-.056,3.93-.056,4.284-.5a1.391,1.391,0,0,0-.019-1.844c-.373-.391-.522-.41-4.284-.41H14.716v-6.706H41.353Zm51.263,14.678v8.848h-8.01v-17.7h8.01Zm-51.225,4.936v3.912H14.716v-7.824H41.353Z" fill="#7f7f7f"/>
    <path id="Path_7036" data-name="Path 7036" d="M204.484-478.555c-.484.373-.484.391-.484,3.129,0,2.626.019,2.757.428,3.148a1.329,1.329,0,0,0,1.825.056c.428-.335.447-.5.5-2.813.075-2.7-.075-3.353-.82-3.707A1.093,1.093,0,0,0,204.484-478.555Z" transform="translate(-166 -26.093)" fill="#fe6d05"/>
    <path id="Path_7062" data-name="Path 7062" d="M204.484-478.555c-.484.373-.476,1.127-.476,3.865-.016,0,2.75.016,2.766,0,.075-2.7-.092-3.7-.837-4.051A1.093,1.093,0,0,0,204.484-478.555Z" transform="translate(-166 -13.794)" fill="#fe6d05"/>
    <path id="Path_7037" data-name="Path 7037" d="M249.484-478.609l-.484.373v2.775c0,2.626.019,2.794.41,3.167a1.294,1.294,0,0,0,2.1-.391,14.95,14.95,0,0,0,.093-5.327,1.639,1.639,0,0,0-1.378-.987A1.781,1.781,0,0,0,249.484-478.609Z" transform="translate(-202.618 -26.039)" fill="#fe6d05"/>
    <path id="Path_7038" data-name="Path 7038" d="M293.689-478.553c-.5.447-.522.484-.577,2.775a7.334,7.334,0,0,0,.224,2.98,1.312,1.312,0,0,0,1.714.8c.8-.2,1.043-1.118.969-3.781-.056-2.291-.074-2.328-.577-2.775a1.852,1.852,0,0,0-.875-.447A1.852,1.852,0,0,0,293.689-478.553Z" transform="translate(-238.496 -26.039)" fill="#fe6d05"/>
    <path id="Path_7039" data-name="Path 7039" d="M249.931-412.523c-.875.317-.931.54-.931,3.446,0,2.515.037,2.794.373,3.129a1.439,1.439,0,0,0,1.881.019c.428-.354.447-.447.447-3.074,0-2.459-.037-2.738-.373-3.074A1.45,1.45,0,0,0,249.931-412.523Z" transform="translate(-202.618 -80.092)" fill="#fe6d05"/>
    <path id="Path_7040" data-name="Path 7040" d="M294.045-412.354c-.82.41-.95.95-.894,3.632.056,2.366.074,2.515.5,2.85a1.459,1.459,0,0,0,1.863,0c.5-.5.615-1.3.54-3.725-.056-1.77-.112-2.1-.428-2.422A1.275,1.275,0,0,0,294.045-412.354Z" transform="translate(-238.535 -80.149)" fill="#fe6d05"/>
    <path id="Path_7041" data-name="Path 7041" d="M249.373-345.608c-.335.335-.373.615-.373,3.036,0,3.111.13,3.483,1.285,3.483,1.267,0,1.416-.354,1.416-3.446,0-2.347-.037-2.7-.354-3.055A1.48,1.48,0,0,0,249.373-345.608Z" transform="translate(-202.618 -134.284)" fill="#fe6d05"/>
    <path id="Path_7042" data-name="Path 7042" d="M293.947-345.565c-.428.354-.447.447-.447,3.055,0,2.384.037,2.738.354,3.092a1.545,1.545,0,0,0,2.086,0c.317-.354.354-.708.354-3.092,0-2.608-.019-2.7-.447-3.055A1.513,1.513,0,0,0,293.947-345.565Z" transform="translate(-238.828 -134.346)" fill="#fe6d05"/>
    <path id="Path_7043" data-name="Path 7043" d="M249.484-279.609c-.484.373-.484.391-.484,3.129,0,2.626.019,2.757.428,3.148a1.246,1.246,0,0,0,2.086-.354,14.95,14.95,0,0,0,.093-5.327,1.639,1.639,0,0,0-1.378-.987A1.78,1.78,0,0,0,249.484-279.609Z" transform="translate(-202.618 -187.971)" fill="#fe6d05"/>
    <path id="Path_7044" data-name="Path 7044" d="M294.259-279.627a1.165,1.165,0,0,0-.41,1.639,1.328,1.328,0,0,0,1.676.708,1.547,1.547,0,0,0,.857-1.639,1.957,1.957,0,0,0-1.341-1.08A1.563,1.563,0,0,0,294.259-279.627Z" transform="translate(-238.972 -187.971)" fill="#fe6d05"/>
    <path id="Path_7045" data-name="Path 7045" d="M249.373-212.608c-.335.335-.373.615-.373,3.129,0,2.5.037,2.813.354,3.092a1.474,1.474,0,0,0,1.937-.056c.391-.373.41-.577.41-3.074,0-2.366-.037-2.72-.354-3.074A1.48,1.48,0,0,0,249.373-212.608Z" transform="translate(-202.618 -242.51)" fill="#fe6d05"/>
    <path id="Path_7046" data-name="Path 7046" d="M249.484-146.609l-.484.373v2.775c0,2.626.019,2.794.41,3.167a1.294,1.294,0,0,0,2.1-.391,14.95,14.95,0,0,0,.093-5.327,1.639,1.639,0,0,0-1.378-.987A1.78,1.78,0,0,0,249.484-146.609Z" transform="translate(-202.618 -296.196)" fill="#fe6d05"/>
    <path id="Path_7047" data-name="Path 7047" d="M249.373-79.567c-.335.335-.373.615-.373,3.129,0,2.552.037,2.794.373,3.111a1.45,1.45,0,0,0,1.919-.075c.391-.373.41-.577.41-3.111,0-2.626-.019-2.72-.447-3.074A1.439,1.439,0,0,0,249.373-79.567Z" transform="translate(-202.618 -350.776)" fill="#fe6d05"/>
    <path id="Path_7048" data-name="Path 7048" d="M32.484-167.512c-.484.373-.484.41-.484,2.869s0,2.5.484,2.869a1.251,1.251,0,0,0,1.844-.074c.447-.428.466-.559.466-2.794s-.019-2.366-.466-2.794A1.251,1.251,0,0,0,32.484-167.512Z" transform="translate(-26.039 -279.205)" fill="#fe6d05"/>
    <path id="Path_7049" data-name="Path 7049" d="M32.373-114.688c-.335.335-.373.615-.373,2.794s.037,2.459.373,2.794a1.393,1.393,0,0,0,2.03-.112c.354-.447.391-.745.391-2.682s-.037-2.235-.391-2.682A1.393,1.393,0,0,0,32.373-114.688Z" transform="translate(-26.039 -322.175)" fill="#fe6d05"/>
    <path id="Path_7050" data-name="Path 7050" d="M32.484-62.512C32-62.139,32-62.1,32-59.718c0,2.347.019,2.44.484,2.906a.964.964,0,0,0,1.062.354c1.1-.2,1.248-.615,1.248-3.223,0-2.2-.019-2.328-.466-2.757A1.251,1.251,0,0,0,32.484-62.512Z" transform="translate(-26.039 -364.646)" fill="#fe6d05"/>
    <path id="Path_7051" data-name="Path 7051" d="M468.373-91.59c-.335.373-.373.652-.373,2.869,0,2.2.037,2.5.391,2.943a1.3,1.3,0,0,0,1.993.056c.373-.41.41-.615.41-2.943,0-2.273-.037-2.552-.373-2.925A1.419,1.419,0,0,0,469.4-92,1.419,1.419,0,0,0,468.373-91.59Z" transform="translate(-380.824 -340.951)" fill="#fe6d05"/>
    <path id="Path_7052" data-name="Path 7052" d="M63.392-453.627a1.48,1.48,0,0,0,.019,1.974c.373.335.764.354,7.153.354s6.78-.019,7.153-.354a1.48,1.48,0,0,0,.019-1.974c-.354-.354-.615-.373-7.172-.373S63.746-453.981,63.392-453.627Z" transform="translate(-51.284 -46.382)" fill="#7f7f7f"/>
    <path id="Path_7053" data-name="Path 7053" d="M25.389-428.739a1.446,1.446,0,0,0,0,2.273c.242.186,1.788.242,7.041.261,6.5,0,6.725-.019,7.116-.373a1.462,1.462,0,0,0,0-2.049c-.391-.354-.615-.373-7.116-.373C27.215-428.981,25.631-428.925,25.389-428.739Z" transform="translate(-20.211 -66.725)" fill="#7f7f7f"/>
    <path id="Path_7054" data-name="Path 7054" d="M353.776-364.6c-1.416.782-.987,2.44.689,2.682.447.056,4.6.093,9.239.056l8.457-.056.447-.522a1.124,1.124,0,0,0,0-1.751l-.447-.522-9.016-.037C356.831-364.787,354.037-364.731,353.776-364.6Z" transform="translate(-287.183 -118.999)" fill="#7f7f7f"/>
    <path id="Path_7055" data-name="Path 7055" d="M408.878-332.87a1.412,1.412,0,0,0-.559,2.291c.354.354.615.373,7.227.373,6.65,0,6.874-.019,7.209-.373a1.386,1.386,0,0,0-.168-1.993l-.5-.428-6.464.019C412.063-332.981,409.027-332.925,408.878-332.87Z" transform="translate(-331.947 -144.843)" fill="#7f7f7f"/>
    <path id="Path_7056" data-name="Path 7056" d="M324.916-225.683a1.392,1.392,0,0,0,.391,2.291,76.073,76.073,0,0,0,8.625.149c7.674-.056,8.14-.075,8.513-.41a1.48,1.48,0,0,0,.019-1.975c-.354-.354-.615-.373-8.811-.373C325.829-226,325.177-225.981,324.916-225.683Z" transform="translate(-264.041 -231.912)" fill="#fe6d05"/>
    <path id="Path_7057" data-name="Path 7057" d="M324.46-189.516a1.1,1.1,0,0,0-.168,1.472,1.339,1.339,0,0,0,.875.671c.428.112,3.465.168,8.606.13,7.507-.056,7.973-.075,8.345-.41a1.48,1.48,0,0,0,.019-1.975c-.354-.354-.615-.373-8.829-.373h-8.475Z" transform="translate(-263.716 -261.206)" fill="#fe6d05"/>
    <path id="Path_7058" data-name="Path 7058" d="M325.174-154.8A1.835,1.835,0,0,0,324-153.422a1.807,1.807,0,0,0,.447.857l.447.522h8.382c7.973,0,8.4-.019,8.773-.354a1.586,1.586,0,0,0,.2-1.788c-.373-.689-1.118-.745-9.016-.726C329.029-154.894,325.4-154.838,325.174-154.8Z" transform="translate(-263.647 -289.755)" fill="#fe6d05"/>
    <path id="Path_7059" data-name="Path 7059" d="M324.952-118.643a2.368,2.368,0,0,0-.745.745.787.787,0,0,0,0,1.006c.559.987.559.987,9.332.95,7.712-.056,8.159-.075,8.531-.41a1.545,1.545,0,0,0,0-2.086c-.373-.335-.82-.354-8.531-.41C327.262-118.885,325.306-118.829,324.952-118.643Z" transform="translate(-263.667 -319.096)" fill="#fe6d05"/>
    <path id="Path_7060" data-name="Path 7060" d="M324.952-82.614a2.368,2.368,0,0,0-.745.745.787.787,0,0,0,0,1.006c.559.987.559.987,9.332.95,7.712-.056,8.159-.075,8.531-.41a1.545,1.545,0,0,0,0-2.086c-.373-.335-.82-.354-8.531-.41C327.28-82.837,325.306-82.8,324.952-82.614Z" transform="translate(-263.667 -348.418)" fill="#fe6d05"/>
    <path id="Path_7061" data-name="Path 7061" d="M325.006-46.585A1.822,1.822,0,0,0,324-45.244a1.847,1.847,0,0,0,.447.838l.447.522,7.619.056c4.173.037,7.954,0,8.4-.056a2.538,2.538,0,0,0,1.174-.484,1.477,1.477,0,0,0-.037-1.956c-.373-.335-.82-.354-8.531-.391C329.048-46.734,325.211-46.678,325.006-46.585Z" transform="translate(-263.647 -377.797)" fill="#fe6d05"/>
  </g>
</svg>
