<svg xmlns="http://www.w3.org/2000/svg" width="94.991" height="95" viewBox="0 0 94.991 95">
  <g id="Community" transform="translate(-0.236 511.663)">
    <path id="Path_5884" data-name="Path 5884" d="M222.087-511.54a9.061,9.061,0,0,0-3.657,2.172,9.631,9.631,0,0,0-1.336,2.06,5.179,5.179,0,0,0-.594,3.026,5.105,5.105,0,0,0,.687,3.174,7.133,7.133,0,0,0,3.638,3.545,5.147,5.147,0,0,0,3.007.594,5.147,5.147,0,0,0,3.007-.594,7.134,7.134,0,0,0,3.638-3.545,5.134,5.134,0,0,0,.687-3.193,5.134,5.134,0,0,0-.687-3.193,7.178,7.178,0,0,0-6.237-4.158A10.269,10.269,0,0,0,222.087-511.54Zm3.322,2.914a4.807,4.807,0,0,1,3.063,4.325,4.793,4.793,0,0,1-4.64,4.64,4.908,4.908,0,0,1-3.248-1.392,4.549,4.549,0,0,1,0-6.5A4.5,4.5,0,0,1,225.41-508.626Z" transform="translate(-176.122)" fill="#fe6d05"/>
    <path id="Path_5885" data-name="Path 5885" d="M55.954-476.59a4.776,4.776,0,0,0-2.877,4.121c0,1.708.093,1.819,6.589,8.39,5.216,5.29,7.332,7.629,7.332,8.148a4.434,4.434,0,0,1-1.021.65,22.745,22.745,0,0,0-8.631,8.705l-.483.872-.928-.594c-.5-.334-3.712-3.36-7.128-6.738-6.571-6.5-6.682-6.589-8.39-6.589A4.628,4.628,0,0,0,36-455.1c.019,1.541.5,2.172,5.661,7.35a50.494,50.494,0,0,1,5.2,5.606c.408,1.021.408,11.527,0,12.529a54.138,54.138,0,0,1-5.364,5.81C36.148-418.4,36-418.214,36-416.525a4.628,4.628,0,0,0,4.529,4.418c1.559-.019,2.116-.464,8.464-6.756,3.323-3.285,6.441-6.237,6.942-6.571l.928-.594.483.872a23.249,23.249,0,0,0,7.2,7.814,18.593,18.593,0,0,0,2.079,1.244c.2.074.371.186.371.26a14.7,14.7,0,0,1-2.8,3.62c-1.838,1.93-2,2.376-1.169,3.211.8.78,1.374.52,3.341-1.485a25.9,25.9,0,0,0,2.487-2.988,9.185,9.185,0,0,1,.872-1.225c.037,0,.705.167,1.5.371a21.663,21.663,0,0,0,11.211,0c.8-.2,1.466-.371,1.5-.371a8.7,8.7,0,0,1,.872,1.244c.557.872,2.747,3.211,6.9,7.406,5.494,5.531,6.088,6.2,6.088,6.738a1.832,1.832,0,0,1-1.689,1.689c-.557,0-1.114-.5-5.624-4.993-3.749-3.712-5.29-5.123-6.051-5.513l-1.021-.538H70.246l-.928.445c-.687.334-2.264,1.782-6.051,5.531-4.585,4.548-5.179,5.067-5.717,5.067a1.847,1.847,0,0,1-1.689-1.689c0-.5.334-.928,2.413-3.044,2.153-2.19,2.413-2.524,2.413-3.1a1.237,1.237,0,0,0-1.318-1.318c-.483,0-.947.371-3.063,2.487a23.754,23.754,0,0,0-2.8,3.137c-1.689,3.564,2.116,7.536,5.7,5.921.613-.26,2.19-1.726,5.754-5.271a50.492,50.492,0,0,1,5.606-5.2c1.021-.408,11.527-.408,12.548,0a50.492,50.492,0,0,1,5.606,5.2c5.179,5.16,5.81,5.643,7.35,5.661a4.5,4.5,0,0,0,4.343-5.7c-.223-.817-.817-1.466-6.4-7.109-5.327-5.4-7.332-7.629-7.332-8.186,0-.074.167-.186.371-.26a23.781,23.781,0,0,0,5.494-4.065,23.781,23.781,0,0,0,4.065-5.494c.074-.2.186-.371.26-.371.557,0,2.784,2,8.186,7.332,5.643,5.587,6.292,6.181,7.109,6.4a4.5,4.5,0,0,0,5.7-4.343c-.019-1.541-.5-2.172-5.661-7.35a50.5,50.5,0,0,1-5.2-5.606c-.223-.575-.278-1.652-.278-6.274s.056-5.7.278-6.274a50.494,50.494,0,0,1,5.2-5.606c5.16-5.179,5.643-5.81,5.661-7.35a4.488,4.488,0,0,0-6.311-4.1,20.225,20.225,0,0,0-2.766,2.432c-1.819,1.838-2.116,2.209-2.116,2.729a1.312,1.312,0,0,0,1.392,1.281c.464,0,.928-.353,2.654-2.042,1.782-1.745,2.172-2.042,2.691-2.042a1.845,1.845,0,0,1,1.671,1.689c0,.538-.52,1.132-5.067,5.717-3.749,3.787-5.2,5.364-5.531,6.051l-.445.928v13.179l.538,1.021c.39.761,1.8,2.3,5.513,6.051,4.492,4.51,4.993,5.067,4.993,5.624a1.832,1.832,0,0,1-1.689,1.689c-.538,0-1.206-.594-6.738-6.088a84.77,84.77,0,0,0-7.387-6.9A8.285,8.285,0,0,1,98-428.757c0-.037.167-.705.371-1.5a21.966,21.966,0,0,0,.742-5.606,21.966,21.966,0,0,0-.742-5.606c-.2-.8-.371-1.466-.371-1.5a9.209,9.209,0,0,1,1.262-.891,30.712,30.712,0,0,0,3.378-2.877c1.968-1.912,2.116-2.116,2.116-2.766a1.145,1.145,0,0,0-.427-1.039c-.835-.668-1.225-.483-3.452,1.652C99-447.1,97.253-445.7,96.863-445.7c-.074,0-.2-.167-.26-.39a18.14,18.14,0,0,0-1.262-2.079,23.991,23.991,0,0,0-7.981-7.295,2.129,2.129,0,0,1-.687-.445c0-.538,2.06-2.821,7.258-8.074,6.626-6.7,6.794-6.942,6.626-8.761a4.455,4.455,0,0,0-5.791-3.916c-.631.186-1.633,1.077-5.865,5.271a54.143,54.143,0,0,1-5.81,5.364c-.965.408-11.508.408-12.473.019a9.744,9.744,0,0,1-1.93-1.485,6.845,6.845,0,0,0-1.578-1.225,1.5,1.5,0,0,0-1.448,1.875,12.068,12.068,0,0,0,3.564,3.248l1.021.538H83.425l1.021-.538c.761-.39,2.3-1.8,6.051-5.513,4.51-4.492,5.067-4.993,5.624-4.993a1.832,1.832,0,0,1,1.689,1.689c0,.538-.594,1.206-6.088,6.738-4.195,4.232-6.348,6.534-6.9,7.406-.668,1.058-.872,1.244-1.188,1.151a20.216,20.216,0,0,0-6.794-.91,20.216,20.216,0,0,0-6.794.91c-.316.093-.52-.093-1.188-1.151-.557-.872-2.71-3.174-6.9-7.406-5.494-5.531-6.088-6.2-6.088-6.738A1.847,1.847,0,0,1,57.55-474.1c.5,0,.872.278,2.376,1.745,2.1,2.06,2.543,2.246,3.36,1.448a1.925,1.925,0,0,0,.557-.984c0-.613-3.378-3.991-4.548-4.548A4.263,4.263,0,0,0,55.954-476.59ZM47.3-450.678a84.632,84.632,0,0,0,7.313,6.831c.835.5,1.058.724.984,1.021-.037.2-.26,1.169-.5,2.135a25.578,25.578,0,0,0,0,9.652c.241.965.464,1.93.5,2.135.074.3-.148.52-.984,1.021a86.173,86.173,0,0,0-7.313,6.812c-5.606,5.568-6.292,6.181-6.831,6.181a1.832,1.832,0,0,1-1.689-1.689c0-.557.5-1.114,4.993-5.624,3.712-3.749,5.123-5.29,5.513-6.051l.538-1.021v-13.179l-.538-1.021c-.39-.761-1.8-2.3-5.513-6.051-4.492-4.51-4.993-5.067-4.993-5.624a1.832,1.832,0,0,1,1.689-1.689C41.012-456.84,41.7-456.228,47.3-450.678ZM76.3-455.058a6.833,6.833,0,0,1,1.3.947c2.19,1.967,1.912,4.4-.705,6.459-1.169.91-1.466,1.578-1.077,2.339a1.408,1.408,0,0,0,1.671.65c.761-.186,2.951-2.394,3.638-3.675a4.246,4.246,0,0,0,.631-2.84,4.811,4.811,0,0,0-.5-2.691,4.508,4.508,0,0,1-.445-1.058,25.4,25.4,0,0,1,4.158,1.355,21.055,21.055,0,0,1,5.735,4.1l1.559,1.559-.835.928c-2.617,2.914-2.264,8.371.761,11.675a12.869,12.869,0,0,0,2.357,1.856c1.633.965,1.633.965.947,3.137a19.576,19.576,0,0,1-4.9,8.2c-1.244,1.225-4.585,3.694-4.733,3.49-.019-.037-.148-.427-.26-.854a5.513,5.513,0,0,0-2.042-2.71,4.1,4.1,0,0,0-3.378-.39c-1.726.371-2.84.26-3.471-.316a13.633,13.633,0,0,1-1.355-1.763,6.821,6.821,0,0,0-3.155-2.84,5.209,5.209,0,0,0-2.877-.483,5,5,0,0,0-3.1.613A6.9,6.9,0,0,0,62.97-424a10.934,10.934,0,0,1-.557,1.114c-.2.3-2.747-3.6-3.49-5.346a20.715,20.715,0,0,1-1.392-5.067c0-.483.037-.5.613-.371a13.309,13.309,0,0,0,2.079.13,4.226,4.226,0,0,0,3.657-1.541c.872-.965,1.206-2.042,1.522-4.974.427-3.991.891-4.436,3.824-3.805,1.708.371,2.19.316,2.673-.39.742-1.039.074-1.856-1.875-2.3-2.821-.631-4.232-.371-5.68,1-.965.928-1.392,2.227-1.726,5.2-.3,2.691-.575,3.471-1.392,3.879a4.4,4.4,0,0,1-2.933-.056l-.965-.278.111-1.058a19.762,19.762,0,0,1,17.968-17.448A1.949,1.949,0,0,1,76.3-455.058ZM94.45-444.181c.278.65.687,1.708.91,2.376.705,2.116,1.244,6.125.835,6.125a4.979,4.979,0,0,1-1.021-.65c-2.6-1.912-3.545-6.07-1.93-8.538.167-.26.39-.464.5-.464A3.437,3.437,0,0,1,94.45-444.181ZM71.36-424.8a6.325,6.325,0,0,1,1.949,2.1c2.079,2.933,3.879,3.675,7.128,2.914,1.429-.334,1.875-.167,2.357.909.538,1.207.427,1.411-.817,1.8a19.72,19.72,0,0,1-15.666-2.413c-1.466-.965-1.522-1.021-1.411-1.578a5.446,5.446,0,0,1,2.506-3.824A4.974,4.974,0,0,1,71.36-424.8Z" transform="translate(-29.126 -28.342)" fill="#fe6d05"/>
    <path id="Path_5886" data-name="Path 5886" d="M248.716-279.674a6.139,6.139,0,0,0-1.206,1.207,4.962,4.962,0,0,1-3.026,1.949,3.735,3.735,0,0,0-2.784,4.009c-.019,3.155,2.766,4.51,7.035,3.415,3.026-.78,5.624-2.469,6.4-4.176a4.411,4.411,0,0,0-.037-3.434,6.9,6.9,0,0,0-2.8-2.9A4.056,4.056,0,0,0,248.716-279.674Zm3.174,3.23c1.021,1,1.077,1.652.26,2.58-1.039,1.207-4.1,2.357-6.2,2.357-.891,0-1.077-.056-1.336-.464a1,1,0,0,1-.093-1.077c.186-.575.353-.687,1.429-1.039a7.089,7.089,0,0,0,3.49-2.32C250.349-277.521,250.813-277.54,251.89-276.444Z" transform="translate(-196.644 -188.617)" fill="#7f7f7f"/>
    <path id="Path_5887" data-name="Path 5887" d="M433.169-295.629c-1.132.687-1.169.872-1.169,7.091,0,5.253.019,5.661.371,6.218.687,1.132.872,1.169,7.053,1.169s6.367-.037,7.053-1.169c.353-.557.371-.965.371-6.218,0-6.218-.037-6.4-1.169-7.091-.557-.353-.965-.371-6.255-.371S433.726-295.981,433.169-295.629Zm10.9,7.053v4.64h-9.281v-9.281h9.281Z" transform="translate(-351.622 -175.632)" fill="#fe6d05"/>
    <path id="Path_5888" data-name="Path 5888" d="M7.988-291.081C.471-287.629.842-287.833.471-287.072a2.128,2.128,0,0,0,.408,2.506,50.2,50.2,0,0,0,5.884,2.933c6.088,2.766,6.367,2.821,7.5,1.8l.687-.631v-11.211l-.687-.631C13.148-293.309,12.665-293.216,7.988-291.081Zm4.269,4.993v3.879L8.081-284.1c-2.3-1.021-4.176-1.912-4.176-1.967s7.313-3.471,8.316-3.879C12.239-289.968,12.257-288.223,12.257-286.088Z" transform="translate(0 -178.138)" fill="#fe6d05"/>
    <path id="Path_5889" data-name="Path 5889" d="M215.139-79.844A44.03,44.03,0,0,0,211-72.7a44.03,44.03,0,0,0,4.139,7.146c.575.408,7.852.408,8.427,0a44.033,44.033,0,0,0,4.139-7.146,44.033,44.033,0,0,0-4.139-7.146C222.991-80.252,215.715-80.252,215.139-79.844Zm8.241,4.826,1.336,2.32-1.336,2.32-1.336,2.32h-5.383l-1.336-2.32-1.336-2.32,1.336-2.32,1.336-2.32h5.383Z" transform="translate(-171.643 -351.418)" fill="#fe6d05"/>
    <path id="Path_5890" data-name="Path 5890" d="M141.751-363.948a22.371,22.371,0,0,0,0,21.42,23.25,23.25,0,0,0,7.2,7.814,18.6,18.6,0,0,0,2.079,1.244c.2.074.371.186.371.26,0,.353,2.691,1.132,2.729,1.132s.705.167,1.5.371a21.663,21.663,0,0,0,11.211,0c.8-.2,1.466-.371,1.5-.371s2.638-1.116,2.729-1.132c0-.074.167-.186.371-.26a23.781,23.781,0,0,0,5.494-4.065,23.781,23.781,0,0,0,4.065-5.494c.074-.2.186-.371.26-.371.557,0,1.132-2.691,1.132-2.729s.167-.705.371-1.5a21.965,21.965,0,0,0,.742-5.606,21.966,21.966,0,0,0-.742-5.606c-.2-.8-.371-1.466-.371-1.5s-.742-2.729-1.132-2.729c-.074,0-.2-.167-.26-.39a18.14,18.14,0,0,0-1.262-2.079,23.991,23.991,0,0,0-7.981-7.295c-.371-.186-3.415-1.559-3.731-1.652a20.215,20.215,0,0,0-6.793-.91,20.216,20.216,0,0,0-6.794.91C154.131-374.4,145.65-371.505,141.751-363.948ZM160.7-372.43a6.832,6.832,0,0,1,1.3.947c2.19,1.968,1.912,4.4-.705,6.459-1.169.91-1.466,1.578-1.077,2.339a1.408,1.408,0,0,0,1.671.65c.761-.186,2.951-2.394,3.638-3.675a4.246,4.246,0,0,0,.631-2.84,4.811,4.811,0,0,0-.5-2.691,4.508,4.508,0,0,1-.445-1.058,25.4,25.4,0,0,1,4.158,1.355,21.054,21.054,0,0,1,5.735,4.1l1.559,1.559-.835.928c-2.617,2.914-2.265,8.371.761,11.675a12.868,12.868,0,0,0,2.357,1.856c1.633.965,1.633.965.947,3.137a19.576,19.576,0,0,1-4.9,8.2c-1.244,1.225-4.585,3.694-4.733,3.49-.019-.037-.148-.427-.26-.854a5.513,5.513,0,0,0-2.042-2.71,4.1,4.1,0,0,0-3.378-.39c-1.726.371-2.84.26-3.471-.316a13.631,13.631,0,0,1-1.355-1.763,6.821,6.821,0,0,0-3.155-2.84,5.209,5.209,0,0,0-2.877-.483,5,5,0,0,0-3.1.613,6.9,6.9,0,0,0-3.248,3.36,10.93,10.93,0,0,1-.557,1.114c-.2.3-2.747-3.6-3.49-5.346a20.715,20.715,0,0,1-1.392-5.067c0-.483.037-.5.613-.371a13.309,13.309,0,0,0,2.079.13,4.226,4.226,0,0,0,3.657-1.541c.872-.965,1.206-2.042,1.522-4.974.427-3.991.891-4.436,3.824-3.805,1.708.371,2.19.316,2.673-.39.742-1.039.074-1.856-1.875-2.3-2.821-.631-4.232-.371-5.68,1-.965.928-1.392,2.227-1.726,5.2-.3,2.691-.575,3.471-1.392,3.879a4.4,4.4,0,0,1-2.933-.056l-.965-.278.111-1.058a19.762,19.762,0,0,1,17.968-17.448A1.949,1.949,0,0,1,160.7-372.43Zm18.153,10.877c.278.65.687,1.708.91,2.376.705,2.116,1.244,6.125.835,6.125a4.98,4.98,0,0,1-1.021-.65c-2.6-1.912-3.545-6.07-1.93-8.538.167-.26.39-.464.5-.464A3.437,3.437,0,0,1,178.855-361.553Zm-23.09,19.378a6.325,6.325,0,0,1,1.949,2.1c2.079,2.933,3.879,3.675,7.128,2.914,1.429-.334,1.875-.167,2.357.91.538,1.206.427,1.411-.817,1.8a19.72,19.72,0,0,1-15.666-2.413c-1.466-.965-1.522-1.021-1.411-1.578a5.446,5.446,0,0,1,2.506-3.824A4.974,4.974,0,0,1,155.765-342.175Z" transform="translate(-113.587 -111.028)" fill="#7f7f7f"/>
  </g>
</svg>
