<svg _ngcontent-dwd-c328="" xmlns="http://www.w3.org/2000/svg" width="16.667" height="20" viewBox="0 0 16.667 20"><path _ngcontent-dwd-c328="" id="Icon_awesome-sticky-note" data-name="Icon awesome-sticky-note" d="M11.607,15.107h5.06V3.321a.992.992,0,0,0-.893-1.071H.893A.992.992,0,0,0,0,3.321V21.179A.992.992,0,0,0,.893,22.25h9.821V16.179A1,1,0,0,1,11.607,15.107Zm4.8,2.455L12.76,21.937a.824.824,0,0,1-.632.313H11.9V16.536h4.762v.272A1.185,1.185,0,0,1,16.406,17.562Z" transform="translate(0 -2.25)" fill="#ffffff"></path></svg>
