<svg xmlns="http://www.w3.org/2000/svg" width="88.698" height="95" viewBox="0 0 88.698 95">
  <g id="industrial" transform="translate(-17 511.963)">
    <path id="Path_7070" data-name="Path 7070" d="M84.4-511.784a1.562,1.562,0,0,0-.668.779c-.186.464-.408,7.014-.946,26.313-.482,17.554-.761,25.774-.909,25.922-.186.186-4.528,2.654-4.676,2.654-.037,0-.074-3.1-.074-6.866v-6.885l-.464-.445a1.48,1.48,0,0,0-.983-.464q-.529,0-13.694,7.311l-13.156,7.311-.093-6.866-.093-6.865-.52-.446a1.914,1.914,0,0,0-1-.445c-.594,0-29.114,15.791-29.69,16.44l-.427.464v35.832l.538.538.538.539h86.545l.538-.539.538-.538V-469.7l-.538-.539a1.762,1.762,0,0,0-1.039-.538,12.516,12.516,0,0,0-2.8,1.28c-1.262.705-2.3,1.28-2.32,1.262,0-.019-.278-9.612-.631-21.3-.464-16.218-.668-21.358-.854-21.655a2.006,2.006,0,0,0-.668-.576A103.329,103.329,0,0,0,84.4-511.784Zm10.243,3.266a8.367,8.367,0,0,1,.111,1.577v1.28H86.585v-3.154h3.971C94.008-508.815,94.546-508.778,94.638-508.518Zm.186,6.606c.167,1.15,1.039,35.5.891,35.553-.074.019-2.431,1.318-5.233,2.9-4.565,2.542-5.1,2.8-5.159,2.449-.019-.223.2-9.111.52-19.781.3-10.67.557-19.911.557-20.56v-1.15h8.332ZM46.114-452.2a1.855,1.855,0,0,0,.965.352c.353,0,4.973-2.468,13.657-7.292l13.138-7.311.093,6.829.093,6.81.445.482a1.4,1.4,0,0,0,1.021.482c.408,0,4.045-1.93,12.451-6.606,6.532-3.618,12.488-6.921,13.23-7.33l1.336-.742v46.409H75.656l-.056-5.1c-.056-5.01-.056-5.1-.482-5.511l-.427-.427H48.007l-.427.427c-.427.408-.427.5-.482,5.511l-.056,5.1H20.155l.037-16.181.056-16.18,12.618-7.015,12.618-7.014.093,6.977.093,6.977Zm13.564,28.093v3.99H50.215V-428.1h9.464Zm12.8,0v3.99H63.019V-428.1h9.464Z" transform="translate(0 0)" fill="#7f7f7f"/>
    <path id="Path_7074" data-name="Path 7074" d="M75.447-420.117c-.056-5.01.1-10.206-.329-10.614l-.427-.427H48.007l-.427.427c-.427.408-.427.5-.482,5.511l-.056,5.1Zm-15.768-3.99v3.99H50.215V-428.1h9.464Zm12.8,0v3.99H63.019V-428.1h9.464Z" transform="translate(0 0)" fill="#fe6d05"/>
    <path id="Path_7071" data-name="Path 7071" d="M61.113-170.647a2.945,2.945,0,0,0-.687.483c-.408.371-.427.482-.427,4.138,0,3.711,0,3.767.445,4.286l.445.52,6.383.056c3.489.037,6.643,0,7-.056a2.53,2.53,0,0,0,1.058-.557c.445-.445.445-.5.445-4.157s0-3.711-.445-4.231l-.445-.52-6.754-.037C64.435-170.74,61.262-170.7,61.113-170.647Zm11.5,4.6v1.577H63.155v-3.155h9.464Z" transform="translate(-35.021 -277.917)" fill="#fe6d05"/>
    <path id="Path_7072" data-name="Path 7072" d="M214-170.822c-.854.371-1,1.039-1,4.565,0,3.377.13,4.082.872,4.472.705.39,13.509.39,14.214,0,.742-.39.872-1.095.872-4.472,0-3.581-.13-4.194-1.039-4.565C227.028-171.193,214.856-171.193,214-170.822Zm11.765,4.509.056,1.54h-9.668v-1.448a5.748,5.748,0,0,1,.13-1.6c.074-.056,2.208-.093,4.769-.074l4.658.056Z" transform="translate(-159.63 -277.612)" fill="#fe6d05"/>
    <path id="Path_7073" data-name="Path 7073" d="M368.169-170.575a1.579,1.579,0,0,0-.8.557c-.353.445-.371.742-.371,4.175,0,3.637,0,3.693.445,4.138a2.53,2.53,0,0,0,1.058.557c.353.056,3.507.093,7,.056l6.384-.056.445-.52c.446-.52.446-.575.446-4.286v-3.767l-.483-.445-.482-.445-6.606-.019C371.565-170.649,368.392-170.63,368.169-170.575Zm11.449,4.6v1.577h-9.464v-3.155h9.464Z" transform="translate(-285.054 -277.989)" fill="#fe6d05"/>
  </g>
</svg>
