<svg xmlns="http://www.w3.org/2000/svg" width="95" height="108.07" viewBox="0 0 95 108.07">
  <g id="Infrastructure_" data-name="Infrastructure &amp;" transform="translate(0.07)">
    <g id="Group_26" data-name="Group 26" transform="translate(-0.07)">
      <g id="Group_25" data-name="Group 25" transform="translate(0)">
        <path id="Path_4" data-name="Path 4" d="M124.6,104.9h-1.063V94.486a1.583,1.583,0,1,0-3.166,0V104.9h-31V68.043l31,10.069V87.1a1.583,1.583,0,0,0,3.166,0V76.962a1.583,1.583,0,0,0-1.094-1.506L90.32,65.023a3.032,3.032,0,0,0-.949-.191V26.32a2.985,2.985,0,0,0-2.982-2.982H82.884V16.677a2.725,2.725,0,0,0-2.722-2.722H72.288V1.583a1.583,1.583,0,1,0-3.166,0V13.955H61.38a2.857,2.857,0,0,0-2.854,2.854v6.53H55.073a3.038,3.038,0,0,0-3.034,3.034v14.77H37.885a2.932,2.932,0,0,0-2.929,2.929V104.9H32.93a1.583,1.583,0,0,0,0,3.166H124.6a1.583,1.583,0,0,0,0-3.166Zm-72.561,0H38.122V44.31H52.039ZM79.717,17.121v6.217H61.693V17.121Zm6.488,50.74V104.9h-31v-78.4h31Z" transform="translate(-31.288)" fill="#7f7f7f"/>
        <path id="Path_5837" data-name="Path 5837" d="M1.47,125.8a1.539,1.539,0,0,1,0-3.079l91.921-.08h0a1.539,1.539,0,0,1,0,3.079l-91.921.08Z" transform="translate(0.07 -17.757)" fill="#fe6d05"/>
      </g>
    </g>
    <g id="Group_28" data-name="Group 28" transform="translate(9.741 51.191)">
      <g id="Group_27" data-name="Group 27" transform="translate(0)">
        <path id="Path_5" data-name="Path 5" d="M84.26,242.527H79.127a1.583,1.583,0,1,0,0,3.166H84.26a1.583,1.583,0,1,0,0-3.166Z" transform="translate(-77.544 -242.527)" fill="#7f7f7f"/>
      </g>
    </g>
    <g id="Group_30" data-name="Group 30" transform="translate(9.741 58.795)">
      <g id="Group_29" data-name="Group 29" transform="translate(0)">
        <path id="Path_6" data-name="Path 6" d="M84.26,278.55H79.127a1.583,1.583,0,1,0,0,3.166H84.26a1.583,1.583,0,1,0,0-3.166Z" transform="translate(-77.544 -278.55)" fill="#7f7f7f"/>
      </g>
    </g>
    <g id="Group_32" data-name="Group 32" transform="translate(9.741 66.398)">
      <g id="Group_31" data-name="Group 31" transform="translate(0)">
        <path id="Path_7" data-name="Path 7" d="M84.26,314.573H79.127a1.583,1.583,0,1,0,0,3.166H84.26a1.583,1.583,0,1,0,0-3.166Z" transform="translate(-77.544 -314.573)" fill="#7f7f7f"/>
      </g>
    </g>
    <g id="Group_34" data-name="Group 34" transform="translate(9.741 74.002)">
      <g id="Group_33" data-name="Group 33" transform="translate(0)">
        <path id="Path_8" data-name="Path 8" d="M84.26,350.6H79.127a1.583,1.583,0,1,0,0,3.166H84.26a1.583,1.583,0,1,0,0-3.166Z" transform="translate(-77.544 -350.596)" fill="#7f7f7f"/>
      </g>
    </g>
    <g id="Group_36" data-name="Group 36" transform="translate(9.741 81.605)">
      <g id="Group_35" data-name="Group 35" transform="translate(0)">
        <path id="Path_9" data-name="Path 9" d="M84.26,386.619H79.127a1.583,1.583,0,0,0,0,3.166H84.26a1.583,1.583,0,0,0,0-3.166Z" transform="translate(-77.544 -386.619)" fill="#7f7f7f"/>
      </g>
    </g>
    <g id="Group_38" data-name="Group 38" transform="translate(9.741 89.209)">
      <g id="Group_37" data-name="Group 37" transform="translate(0)">
        <path id="Path_10" data-name="Path 10" d="M84.26,422.643H79.127a1.583,1.583,0,1,0,0,3.166H84.26a1.583,1.583,0,1,0,0-3.166Z" transform="translate(-77.544 -422.643)" fill="#7f7f7f"/>
      </g>
    </g>
    <g id="Group_40" data-name="Group 40" transform="translate(9.741 96.813)">
      <g id="Group_39" data-name="Group 39" transform="translate(0)">
        <path id="Path_11" data-name="Path 11" d="M84.26,458.666H79.127a1.583,1.583,0,0,0,0,3.166H84.26a1.583,1.583,0,1,0,0-3.166Z" transform="translate(-77.544 -458.666)" fill="#7f7f7f"/>
      </g>
    </g>
    <g id="Group_42" data-name="Group 42" transform="translate(62.193 81.605)">
      <g id="Group_41" data-name="Group 41">
        <path id="Path_12" data-name="Path 12" d="M346.678,386.619H327.626a1.583,1.583,0,0,0,0,3.166h19.052a1.583,1.583,0,0,0,0-3.166Z" transform="translate(-326.043 -386.619)" fill="#7f7f7f"/>
      </g>
    </g>
    <g id="Group_44" data-name="Group 44" transform="translate(62.193 89.209)">
      <g id="Group_43" data-name="Group 43">
        <path id="Path_13" data-name="Path 13" d="M346.678,422.643H327.626a1.583,1.583,0,1,0,0,3.166h19.052a1.583,1.583,0,1,0,0-3.166Z" transform="translate(-326.043 -422.643)" fill="#7f7f7f"/>
      </g>
    </g>
    <g id="Group_46" data-name="Group 46" transform="translate(62.193 96.813)">
      <g id="Group_45" data-name="Group 45">
        <path id="Path_14" data-name="Path 14" d="M346.678,458.666H327.626a1.583,1.583,0,0,0,0,3.166h19.052a1.583,1.583,0,0,0,0-3.166Z" transform="translate(-326.043 -458.666)" fill="#7f7f7f"/>
      </g>
    </g>
    <g id="Group_48" data-name="Group 48" transform="translate(27.186 42.212)">
      <g id="Group_47" data-name="Group 47" transform="translate(0)">
        <path id="Path_15" data-name="Path 15" d="M182.936,199.984H161.778a1.583,1.583,0,0,0-1.583,1.583V207.4a1.583,1.583,0,0,0,1.583,1.583h21.158a1.583,1.583,0,0,0,1.583-1.583v-5.835A1.583,1.583,0,0,0,182.936,199.984Zm-1.583,5.835H163.361V203.15h17.991Z" transform="translate(-160.195 -199.984)" fill="#7f7f7f"/>
      </g>
    </g>
    <g id="Group_50" data-name="Group 50" transform="translate(27.186 54.368)">
      <g id="Group_49" data-name="Group 49" transform="translate(0)">
        <path id="Path_16" data-name="Path 16" d="M182.936,257.575H161.778a1.583,1.583,0,0,0-1.583,1.583v5.835a1.583,1.583,0,0,0,1.583,1.583h21.158a1.583,1.583,0,0,0,1.583-1.583v-5.835A1.583,1.583,0,0,0,182.936,257.575Zm-1.583,5.834H163.361v-2.668h17.991Z" transform="translate(-160.195 -257.575)" fill="#7f7f7f"/>
      </g>
    </g>
    <g id="Group_52" data-name="Group 52" transform="translate(27.186 66.523)">
      <g id="Group_51" data-name="Group 51" transform="translate(0)">
        <path id="Path_17" data-name="Path 17" d="M182.936,315.164H161.778a1.583,1.583,0,0,0-1.583,1.583v5.835a1.583,1.583,0,0,0,1.583,1.583h21.158a1.583,1.583,0,0,0,1.583-1.583v-5.835A1.583,1.583,0,0,0,182.936,315.164ZM181.352,321H163.361v-2.668h17.991Z" transform="translate(-160.195 -315.164)" fill="#7f7f7f"/>
      </g>
    </g>
    <g id="Group_54" data-name="Group 54" transform="translate(27.186 78.679)">
      <g id="Group_53" data-name="Group 53" transform="translate(0)">
        <path id="Path_18" data-name="Path 18" d="M182.936,372.755H161.778a1.583,1.583,0,0,0-1.583,1.583v5.835a1.583,1.583,0,0,0,1.583,1.583h21.158a1.583,1.583,0,0,0,1.583-1.583v-5.835A1.583,1.583,0,0,0,182.936,372.755Zm-1.583,5.834H163.361v-2.668h17.991Z" transform="translate(-160.195 -372.755)" fill="#7f7f7f"/>
      </g>
    </g>
    <g id="Group_56" data-name="Group 56" transform="translate(27.186 90.835)">
      <g id="Group_55" data-name="Group 55" transform="translate(0)">
        <path id="Path_19" data-name="Path 19" d="M182.936,430.345H161.778a1.583,1.583,0,0,0-1.583,1.583v5.834a1.583,1.583,0,0,0,1.583,1.583h21.158a1.583,1.583,0,0,0,1.583-1.583v-5.834A1.583,1.583,0,0,0,182.936,430.345Zm-1.583,5.835H163.361v-2.668h17.991Z" transform="translate(-160.195 -430.345)" fill="#7f7f7f"/>
      </g>
    </g>
    <g id="Group_58" data-name="Group 58" transform="translate(27.186 30.056)">
      <g id="Group_57" data-name="Group 57">
        <path id="Path_20" data-name="Path 20" d="M182.935,142.394H176.05a1.583,1.583,0,1,0,0,3.166h5.3v2.668H163.36V145.56h5.3a1.583,1.583,0,1,0,0-3.166h-6.885a1.583,1.583,0,0,0-1.583,1.583v5.835a1.583,1.583,0,0,0,1.583,1.583h21.158a1.583,1.583,0,0,0,1.583-1.583v-5.835A1.583,1.583,0,0,0,182.935,142.394Z" transform="translate(-160.194 -142.394)" fill="#7f7f7f"/>
      </g>
    </g>
  </g>
</svg>
