<svg xmlns="http://www.w3.org/2000/svg" width="70" height="70" viewBox="0 0 70 70">
  <g id="warehouse" transform="translate(0 512)">
    <path id="Path_7070" data-name="Path 7070" d="M17.568-502.553C8.176-497.371.369-493,.246-492.846c-.232.273-.246,1.682-.246,25.17v24.883l.4.4.4.4H4.088c3.268,0,3.281,0,3.664-.328l.383-.328.041-16.01.027-16.01H61.8l.027,16.01.041,16.01.383.328c.383.328.4.328,3.664.328h3.295l.4-.4.4-.4v-48.562l-.369-.4C69.1-492.3,35.4-512,34.986-512,34.809-511.986,26.975-507.748,17.568-502.553Zm33.893,2.721,16.215,9.5v46.006H64.121v-41.3l-.342-.328-.328-.342H6.549l-.328.342-.342.328v41.3H2.324l.027-23.6.041-23.584,16.2-8.955c8.914-4.922,16.311-8.928,16.434-8.9S42.547-505.055,51.461-499.832ZM61.8-482.811v1.162H8.2v-2.324H61.8Zm0,4.648V-477H8.2v-2.324H61.8Z" fill="#7f7f7f"/>
    <path id="Path_7071" data-name="Path 7071" d="M205.861-392.591a1.162,1.162,0,0,0-.588.41c-.26.328-.273.547-.273,3.063,0,2.666,0,2.707.328,3.09l.328.383h12.633l.328-.383c.328-.383.328-.424.328-3.1s0-2.721-.328-3.1l-.328-.383-6.07-.014C208.9-392.646,206.025-392.632,205.861-392.591Zm10.76,3.527v1.162h-9.3v-2.324h9.3Z" transform="translate(-176.973 -103.043)" fill="#7f7f7f"/>
    <path id="Path_7072" data-name="Path 7072" d="M228.129-221.638a1.345,1.345,0,0,0-.41.369c-.082.137-.164,2.789-.205,6.85l-.068,6.631-6.645.041-6.645.027-.328.355-.328.355v14.9l.383.328.383.328h14.287c14.738,0,14.643,0,15.053-.533.137-.164.164-3.527.178-14.656v-14.437l-.355-.328-.355-.328-7.328-.027C230.426-221.789,228.32-221.761,228.129-221.638Zm4.033,4.143c0,1.941.014,2.01.342,2.324.328.342.342.342,3.145.342h2.816l.328-.355c.328-.355.342-.437.342-2.324v-1.969h2.324v11.621H229.838v-11.621h2.324Zm4.648-.82v1.162h-2.324v-2.324h2.324ZM218.08-203.8c0,2.064.137,2.6.752,2.857a19.161,19.161,0,0,0,5.592,0c.629-.26.766-.752.766-2.762v-1.7h2.324l-.027,5.77-.041,5.783-5.838.041-5.852.027V-205.4h2.324Zm4.758-.479-.041,1.135-1.121.041-1.135.041V-205.4h2.338Zm9.324.779c0,1.818.014,1.928.328,2.3l.328.383h5.66l.328-.383c.314-.369.328-.479.328-2.3v-1.9h2.324v11.621H229.838V-205.4h2.324Zm4.648-.738v1.162h-2.324V-205.4h2.324Z" transform="translate(-184.311 -250.549)" fill="#fe6d05"/>
  </g>
</svg>
