<svg xmlns="http://www.w3.org/2000/svg" width="95" height="96.583" viewBox="0 0 95 96.583">
  <g id="Industrial" transform="translate(-7.999 -8)">
    <rect id="Rectangle_20" data-name="Rectangle 20" width="3" height="3" transform="translate(29.999 95)" fill="#fe6d05"/>
    <path id="Path_26" data-name="Path 26" d="M66.583,249.333H39.667v-23.75A1.583,1.583,0,0,0,38.083,224H9.583A1.583,1.583,0,0,0,8,225.583V276.25a1.583,1.583,0,0,0,1.583,1.583h57a1.583,1.583,0,0,0,1.583-1.583V250.917A1.583,1.583,0,0,0,66.583,249.333ZM49.167,252.5H55.5v6.333H49.167Zm-28.5-25.333H27V233.5H20.667Zm-9.5,0H17.5v7.917a1.583,1.583,0,0,0,1.583,1.583h9.5a1.583,1.583,0,0,0,1.583-1.583v-7.917H36.5v22.167H11.167Zm9.5,25.333H27v6.333H20.667Zm-9.5,0H17.5v7.917A1.583,1.583,0,0,0,19.083,262h9.5a1.583,1.583,0,0,0,1.583-1.583V252.5H36.5v22.167H11.167ZM65,274.666H39.667V252.5H46v7.917A1.583,1.583,0,0,0,47.583,262h9.5a1.583,1.583,0,0,0,1.583-1.583V252.5H65Z" transform="translate(-0.001 -173.25)" fill="#fe6d05"/>
    <rect id="Rectangle_21" data-name="Rectangle 21" width="3" height="3" transform="translate(58.999 95)" fill="#fe6d05"/>
    <rect id="Rectangle_22" data-name="Rectangle 22" width="3" height="3" transform="translate(29.999 70)" fill="#fe6d05"/>
    <path id="Path_27" data-name="Path 27" d="M101.044,28.539a1.572,1.572,0,0,0,.371.044,1.588,1.588,0,0,0,1.371-.788,1.63,1.63,0,0,0,.213-.831v-6.3a1.583,1.583,0,0,0-1.212-1.539L55.87,8.044a1.577,1.577,0,0,0-.743,0L9.211,19.127A1.583,1.583,0,0,0,8,20.666v6.288a1.647,1.647,0,0,0,.272.934,1.586,1.586,0,0,0,1.682.65l2.8-.675V47.583h3.167V27.1L55.5,17.545,95.082,27.1v74.316h-9.5V39.666A1.583,1.583,0,0,0,84,38.083H27a1.583,1.583,0,0,0-1.583,1.583V46A1.583,1.583,0,0,0,27,47.583H82.415V50.75H42.832v3.167H82.415v3.167H42.832V60.25H82.415v3.167H42.832v3.167H82.415v34.833H71.332v3.167H103v-3.167h-4.75V27.864ZM28.582,44.416V41.25H82.415v3.167ZM55.5,14.333a1.572,1.572,0,0,0-.371.044L11.166,24.989V21.913L55.5,11.212l44.333,10.7v3.076L55.87,14.377a1.572,1.572,0,0,0-.371-.044Z" transform="translate(0 0)" fill="#7f7f7f"/>
    <path id="Path_28" data-name="Path 28" d="M219.083,97.5a4.75,4.75,0,1,0,0-9.5H212.75a4.75,4.75,0,1,0,0,9.5Zm-7.917-4.75a1.585,1.585,0,0,1,1.583-1.583h6.333a1.583,1.583,0,0,1,0,3.167H212.75A1.585,1.585,0,0,1,211.167,92.75Z" transform="translate(-160.418 -64.167)" fill="#7f7f7f"/>
    <path id="Path_5838" data-name="Path 5838" d="M-4618.579,10915.923h-39.67v-3.5h39.67Z" transform="translate(4700.999 -10861.709)" fill="#fe6d05"/>
    <path id="Path_5838-2" data-name="Path 5838" d="M-4618.579,10915.923h-39.67v-3.5h39.67Z" transform="translate(4700.999 -10855.709)" fill="#fe6d05"/>
    <path id="Path_5838-3" data-name="Path 5838" d="M-4618.579,10915.67h-39.67v-3.248h39.67Z" transform="translate(4700.999 -10849.011)" fill="#fe6d05"/>
  </g>
</svg>
